<?xml version="1.0" encoding="utf-8"?>
<!-- Generator: Adobe Illustrator 22.1.0, SVG Export Plug-In . SVG Version: 6.00 Build 0)  -->
<svg version="1.1" id="Слой_1" xmlns="http://www.w3.org/2000/svg" xmlns:xlink="http://www.w3.org/1999/xlink" x="0px" y="0px"
	 viewBox="0 0 45 36" style="enable-background:new 0 0 45 36;" xml:space="preserve">
<style type="text/css">
	.st0{fill:#EC610A;}
	.st1{fill:#FFC300;}
	.st2{fill:#FFFFFF;}
</style>
<g>
	<path class="st0" d="M-2.5,22.7"/>
	<path id="Oval" class="st1" d="M17.8,35.6c9.8,0,17.7-7.9,17.7-17.6c0-9.7-7.9-17.6-17.7-17.6C8,0.4,0.1,8.3,0.1,18
		C0.1,27.7,8,35.6,17.8,35.6z"/>
	<path id="Shape-Copy-2" class="st0" d="M20,16.8h-2.5c-1.4,0-2.6-1.2-2.6-2.6c0-1.4,1.2-2.6,2.6-2.6h5c0.6,0,1.2-0.5,1.2-1.2
		s-0.5-1.2-1.2-1.2h-2.6V6.8c0-0.6-0.5-1.2-1.2-1.2c-0.6,0-1.2,0.5-1.2,1.2v2.6h-0.1c-2.7,0-4.9,2.2-4.9,4.9s2.2,4.9,4.9,4.9H20
		c1.4,0,2.6,1.2,2.6,2.6s-1.2,2.6-2.6,2.6h-5c-0.6,0-1.2,0.5-1.2,1.2c0,0.6,0.5,1.2,1.2,1.2h2.6v2.6c0,0.6,0.5,1.2,1.2,1.2
		c0.6,0,1.2-0.5,1.2-1.2v-2.6H20c2.7,0,4.9-2.2,4.9-4.9C25,19,22.8,16.8,20,16.8z"/>
	<path class="st0" d="M39.4,20.9"/>
	<g>
		<polygon class="st2" points="26.7,21.3 44.2,21.3 44.2,35.6 26.7,35.6 30.4,28.5 		"/>
		<g>
			<path class="st0" d="M37.6,25.9L37.6,25.9l1.6,0v0c0-1.1,0.8-1.9,2-1.9c1.1,0,2,0.7,2,1.7c0,0.8-0.4,1.3-1.8,2.8l-3.6,3.7v1.2
				h7.3v-1.5H40v-0.1l2.4-2.4c1.8-1.8,2.4-2.7,2.4-3.8c0-1.7-1.5-3-3.6-3C39.1,22.6,37.6,23.9,37.6,25.9z"/>
			<path class="st0" d="M32.8,29.5l1.5,2.5h1.6l-2.4-3.5l2.3-3.4h-1.6l-1.5,2.4h-0.1L31.2,25h-1.6l2.4,3.5l-2.4,3.4h1.5l1.6-2.5
				H32.8z"/>
		</g>
	</g>
</g>
</svg>
