<svg xmlns="http://www.w3.org/2000/svg" viewBox="0 0 343 150"><defs><style>.cls-1{fill:#fff;}</style></defs><title>combined_shape</title><g id="Слой_2" data-name="Слой 2"><g id="Слой_1-2" data-name="Слой 1"><path class="cls-1" d="M326,150H17l-.87,0c-.29,0-.57,0-.86-.06l-.85-.1c-.28,0-.57-.08-.84-.14l-.84-.17-.81-.22-.8-.25-.79-.29-.76-.33c-.26-.12-.51-.24-.75-.37s-.49-.26-.72-.4-.48-.28-.71-.44l-.67-.46c-.22-.17-.44-.33-.65-.51s-.42-.35-.63-.53-.4-.37-.59-.57-.38-.39-.57-.59-.36-.41-.53-.63-.34-.43-.51-.65-.31-.44-.46-.67-.3-.47-.44-.71-.27-.47-.4-.72-.25-.49-.37-.75l-.33-.76c-.1-.26-.2-.52-.29-.79s-.17-.53-.25-.8-.15-.54-.22-.81-.12-.56-.17-.84-.1-.56-.14-.84-.07-.57-.1-.85,0-.57-.06-.86,0-.58,0-.87V89.7A15,15,0,0,0,12,75,15,15,0,0,0,0,60.3V17c0-.29,0-.58,0-.87s0-.57.06-.86.06-.57.1-.85.08-.57.14-.84.11-.56.17-.84.14-.54.22-.81.16-.54.25-.8.19-.53.29-.79l.33-.76c.12-.26.24-.51.37-.75s.26-.49.4-.73.28-.47.44-.7.3-.45.46-.67.33-.44.51-.65.35-.42.53-.63.37-.4.57-.59.39-.38.59-.57.41-.36.63-.53.43-.34.65-.5.44-.32.67-.47.47-.3.71-.44.47-.27.72-.4.49-.25.75-.37l.76-.32c.26-.11.52-.21.79-.3l.8-.25.81-.22.84-.17c.27-.06.56-.1.84-.14l.85-.1c.29,0,.57,0,.86-.06L17,0H326l.87,0c.29,0,.57,0,.86.06l.85.1c.28,0,.57.08.84.14l.84.17.81.22.8.25c.27.09.53.19.79.3l.76.32c.26.12.51.24.75.37s.49.26.72.4.48.28.71.44.45.3.67.47.44.32.65.5.42.35.63.53.4.37.59.57.38.39.57.59.36.41.53.63.34.43.5.65.32.44.47.67.3.47.44.7.27.48.4.73.25.49.37.75.22.5.32.76.21.52.3.79.17.53.25.8.15.54.22.81.12.56.17.84.1.56.14.84.07.57.1.85.05.57.06.86,0,.58,0,.87V133c0,.29,0,.58,0,.87s0,.57-.06.86-.06.57-.1.85-.08.57-.14.84-.11.56-.17.84-.14.54-.22.81-.16.54-.25.8-.19.53-.3.79-.21.51-.32.76-.24.51-.37.75-.26.49-.4.72-.28.48-.44.71-.3.45-.47.67-.32.44-.5.65-.35.42-.53.63-.37.4-.57.59-.39.38-.59.57-.41.36-.63.53-.43.34-.65.51l-.67.46c-.23.16-.47.3-.71.44s-.47.27-.72.4-.49.25-.75.37l-.76.33-.79.29-.8.25-.81.22-.84.17c-.27.06-.56.1-.84.14l-.85.1c-.29,0-.57.05-.86.06Z"/></g></g></svg>