<?xml version="1.0" encoding="utf-8" ?>
<svg xmlns="http://www.w3.org/2000/svg" xmlns:xlink="http://www.w3.org/1999/xlink" width="22" height="22">
	<defs>
		<clipPath id="clip_0">
			<rect x="-13.839844" y="-267.32001" width="360" height="640.32001" clip-rule="evenodd"/>
		</clipPath>
		<linearGradient id="gradient_0" gradientUnits="userSpaceOnUse" x1="12.085929" y1="-54.273453" x2="12.085929" y2="22">
			<stop offset="0" stop-color="rgb(16,35,151)"/>
			<stop offset="0.48548797" stop-color="rgb(24,122,223)"/>
			<stop offset="1" stop-color="rgb(69,202,242)"/>
		</linearGradient>
	</defs>
	<g clip-path="url(#clip_0)">
		<path fill="url(#gradient_0)" stroke="none" transform="matrix(0.96 0 0 0.96 0.560547 0.519958)" d="M17.875 15.1252L16.5 15.1252C14.9813 15.1252 13.7499 13.8938 13.7499 12.375L13.7499 11.4916C14.3583 10.7685 14.7947 9.91316 15.0659 9.00937C15.0941 8.85702 15.2407 8.78175 15.3385 8.67701C15.8649 8.15064 15.9685 7.26236 15.5736 6.62989C15.5198 6.5339 15.423 6.45065 15.4284 6.33172C15.4284 5.52537 15.4325 4.71774 15.4274 3.91202C15.4058 2.93922 15.1278 1.92729 14.4458 1.20694C13.8951 0.624939 13.1391 0.278394 12.3591 0.130081C11.3734 -0.0579502 10.3422 -0.0484285 9.36597 0.199907C8.51995 0.413421 7.72513 0.908914 7.23367 1.6434C6.79849 2.28195 6.60783 3.05729 6.57564 3.82143C6.56358 4.64184 6.57287 5.46429 6.57038 6.2867C6.5891 6.45133 6.44945 6.56274 6.38638 6.69903C6.01445 7.37376 6.17818 8.29302 6.77582 8.78375C6.92744 8.8884 6.95582 9.07915 7.01073 9.2436C7.27135 10.056 7.70363 10.8073 8.25013 11.4619L8.25013 12.375C8.25013 13.8938 7.0188 15.1252 5.50015 15.1252L4.12504 15.1252C4.12504 15.1252 1.63291 15.8125 0 19.2501L0 20.6252C0 21.3851 0.615007 22 1.37506 22L20.6252 22C21.385 22 22 21.3851 22 20.6252L22 19.2501C20.3672 15.8127 17.875 15.1252 17.875 15.1252Z"/>
	</g>

</svg>