<?xml version="1.0" encoding="utf-8"?>
<svg width="88px" height="120px" viewBox="0 0 88 120" version="1.1" xmlns:xlink="http://www.w3.org/1999/xlink" xmlns="http://www.w3.org/2000/svg">
  <desc>Created with Lunacy</desc>
  <g id="Group-18">
    <g id="1402" transform="matrix(0.9510565 0.309017 -0.309017 0.9510565 23.25222 27.5402)">
      <path d="M1.48901 50.3403C5.1022 46.4302 9.15726 47.9616 14.5855 48.7885C19.249 49.5066 23.8411 48.1964 23.5352 45.6747C23.0525 41.5945 22.3727 39.7704 20.8262 34.4855C19.5923 30.2827 17.2504 22.7075 15.1192 15.4658C12.264 5.77734 11.438 1.2785 15.2381 0.155491C19.334 -1.03898 21.6827 4.78705 23.8105 12.8659C26.2341 22.061 27.5087 26.1208 28.2225 25.9064C29.4801 25.5457 27.7602 21.6117 31.0505 20.6419C35.1633 19.444 35.9587 22.6633 37.111 22.34C38.2633 21.9929 37.8724 18.7328 41.1525 17.7731C44.4495 16.8202 46.1049 20.8835 47.4645 20.4785C48.8105 20.0804 48.7799 18.6137 50.8125 18.0317C52.8486 17.426 60.51 20.8597 64.8948 35.8569C70.3978 54.7133 64.198 58.2184 66.0777 64.6025L41.5128 73.9541C39.5243 69.166 33.3652 68.8121 27.9166 65.7596C22.4271 62.6662 18.6984 56.6394 4.3918 56.932C-0.988891 57.0409 -0.733963 52.7463 1.48901 50.3403Z" transform="translate(0 0.4462046)" id="Shape" fill="#FFFFFF" stroke="none" />
    </g>
    <path d="M18.711 37.422C29.0448 37.422 37.422 29.0448 37.422 18.711C37.422 8.37719 29.0448 0 18.711 0C8.37719 0 0 8.37719 0 18.711C0 29.0448 8.37719 37.422 18.711 37.422Z" transform="matrix(0.7771459 -0.6293204 0.6293204 0.7771459 12.29409 23.94502)" id="Oval-5" fill="none" stroke="#FFFFFF" stroke-width="5" stroke-linecap="round" stroke-dasharray="90 200 10 0" />
  </g>
</svg>