<?xml version="1.0" standalone="no"?>
<!DOCTYPE svg PUBLIC "-//W3C//DTD SVG 1.1//EN" "http://www.w3.org/Graphics/SVG/1.1/DTD/svg11.dtd" >
<svg xmlns="http://www.w3.org/2000/svg">
<metadata>Generated by IcoMoon</metadata>
<defs>
<font id="icomoon" horiz-adv-x="1024">
<font-face units-per-em="1024" ascent="960" descent="-64" />
<missing-glyph horiz-adv-x="1024" />
<glyph unicode="&#x20;" horiz-adv-x="512" d="" />
<glyph unicode="&#xe900;" glyph-name="arrow2" d="M26.809 456.882l14.95 14.518c2.854 2.771 2.854 7.277 0 10.048s-7.494 2.771-10.348 0l-29.271-28.426c-2.854-2.771-2.854-7.277 0-10.048l29.272-28.425c1.435-1.378 3.307-2.075 5.181-2.075s3.747 0.696 5.167 2.089c2.854 2.771 2.854 7.277 0 10.048l-17.226 16.728h451.818c4.067 0 7.369 3.482 7.369 7.772s-3.302 7.771-7.369 7.771h-449.543zM996.075 456.882l-14.95 14.518c-2.854 2.771-2.854 7.277 0 10.048s7.494 2.771 10.348 0l29.271-28.426c2.854-2.771 2.854-7.277 0-10.048l-29.272-28.425c-1.435-1.378-3.307-2.075-5.181-2.075s-3.747 0.696-5.167 2.089c-2.854 2.771-2.854 7.277 0 10.048l17.226 16.728h-451.818c-4.067 0-7.369 3.482-7.369 7.772s3.302 7.771 7.369 7.771h449.543z" />
<glyph unicode="&#xe901;" glyph-name="branch" d="M597.964 619.884c0 0 42.561 33.411 41.351 90.869-1.24 57.487-51.046 89.749-51.046 89.749s-36.122-36.122-34.846-95.137c1.218-58.9 44.542-85.481 44.542-85.481zM597.964 619.884c0 0 42.561 33.411 41.351 90.869-1.24 57.487-51.046 89.749-51.046 89.749s-36.122-36.122-34.846-95.137c1.218-58.9 44.542-85.481 44.542-85.481zM429.516 582.669c46.389-34.463 98.464-19.511 98.464-19.511s3.464 50.376-44.053 85.738c-47.517 35.361-98.158 27.289-98.158 27.289s-2.642-59.053 43.747-93.515zM429.516 582.669c46.389-34.463 98.464-19.511 98.464-19.511s3.464 50.376-44.053 85.738c-47.517 35.361-98.158 27.289-98.158 27.289s-2.642-59.053 43.747-93.515zM483.228 442.831c41.461-40.143 95.215-32.143 95.215-32.143s10.038 49.421-32.553 90.635c-42.562 41.243-93.87 39.859-93.87 39.859s-10.282-58.179 31.209-98.351zM483.228 442.831c41.461-40.143 95.215-32.143 95.215-32.143s10.038 49.421-32.553 90.635c-42.562 41.243-93.87 39.859-93.87 39.859s-10.282-58.179 31.209-98.351zM469.055 317.306c37.677-43.812 91.916-40.886 91.916-40.886s14.712 48.187-23.893 93.156c-38.633 44.94-89.937 48.425-89.937 48.425s-15.619-56.798 21.914-100.695zM469.055 317.306c37.677-43.812 91.916-40.886 91.916-40.886s14.712 48.187-23.893 93.156c-38.633 44.94-89.937 48.425-89.937 48.425s-15.619-56.798 21.914-100.695zM439.531 196.387c23.574-52.702 76.539-65.53 76.539-65.53s27.998 41.782 3.84 95.87c-24.186 54.059-72.366 72.136-72.366 72.136s-31.415-49.774-8.013-102.475zM439.531 196.387c23.574-52.702 76.539-65.53 76.539-65.53s27.998 41.782 3.84 95.87c-24.186 54.059-72.366 72.136-72.366 72.136s-31.415-49.774-8.013-102.475zM478.76 794.713c-32.941 47.505-92.004 46.88-92.004 46.88s-9.774-50.316 24.009-99.006c33.754-48.661 84.253-46.87 84.253-46.87s16.683 51.549-16.258 98.996zM478.76 794.713c-32.941 47.505-92.004 46.88-92.004 46.88s-9.774-50.316 24.009-99.006c33.754-48.661 84.253-46.87 84.253-46.87s16.683 51.549-16.258 98.996zM624.386 600.475c-16.197-56.564 17.532-94.594 17.532-94.594s50.671 19.223 66.443 74.377c15.714 55.098-22.518 100.554-22.518 100.554s-45.289-23.802-61.457-80.338zM624.386 600.475c-16.197-56.564 17.532-94.594 17.532-94.594s50.671 19.223 66.443 74.377c15.714 55.098-22.518 100.554-22.518 100.554s-45.289-23.802-61.457-80.338zM653.708 470.874c-28.41-51.403-3.898-95.869-3.898-95.869s53.756 7.48 81.452 57.591c27.61 50.139 0.319 102.831 0.319 102.831s-49.492-13.12-77.873-64.553zM653.708 470.874c-28.41-51.403-3.898-95.869-3.898-95.869s53.756 7.48 81.452 57.591c27.61 50.139 0.319 102.831 0.319 102.831s-49.492-13.12-77.873-64.553zM663.264 347.045c-42.642-40.268-32.74-89.962-32.74-89.962s53.667-9.23 95.334 30.062c41.61 39.236 31.405 97.604 31.405 97.604s-51.242 2.562-93.999-37.704zM663.264 347.045c-42.642-40.268-32.74-89.962-32.74-89.962s53.667-9.23 95.334 30.062c41.61 39.236 31.405 97.604 31.405 97.604s-51.242 2.562-93.999-37.704zM621.361 207.659c-47.251-34.799-43.309-85.241-43.309-85.241s52.258-15.505 98.361 18.378c46.016 34.027 42.954 92.993 42.954 92.993s-50.725 8.697-98.005-26.131zM621.361 207.659c-47.251-34.799-43.309-85.241-43.309-85.241s52.258-15.505 98.361 18.378c46.016 34.027 42.954 92.993 42.954 92.993s-50.725 8.697-98.005-26.131zM520.933 682.22l-19.058-20.448c8.512-7.995 206.186-200.966-10.924-601.035l24.761-13.638c228.072 420.182 7.452 633.008 5.221 635.121zM520.933 682.22l-19.058-20.448c8.512-7.995 206.186-200.966-10.924-601.035l24.761-13.638c228.072 420.182 7.452 633.008 5.221 635.121z" />
<glyph unicode="&#xe902;" glyph-name="finger" horiz-adv-x="956" d="M99.927 413.185c52.119 29.2 90.084-1.205 145.147-28.852 47.279-23.835 100.829-25.775 106.309 2.197 8.997 45.218 8.067 67.042 9.889 128.805 1.405 49.131 2.68 138.095 5.047 222.768 3.124 113.296 9.909 164.172 54.358 162.98 47.853-1.455 52.717-71.775 47.411-165.371-6.020-106.534-6.495-154.281 1.866-154.468 14.672-0.511 9.958 47.436 48.435 46.377 48.046-1.477 45.371-38.592 58.79-39.137 13.501-0.291 20.634 35.856 58.967 34.724 38.49-1.263 42.067-50.367 57.981-50.759 15.745-0.419 20.504 15.34 44.214 14.503 23.83-0.596 93.686-63.807 88.477-239.062-6.657-220.318-84.976-236.227-87.053-310.876l-294.585-14.62c-4.618 57.994-69.121 83.128-116.684 134.598-47.858 52.048-66.752 129.296-220.447 175.782-57.801 17.496-40.188 62.444-8.122 80.412z" />
<glyph unicode="&#xe917;" glyph-name="checkmark" d="M118.154 487.385l-118.154-118.154 315.077-315.077 708.923 669.538-118.154 118.154-590.769-551.385-196.923 196.923z" />
<glyph unicode="&#xe91c;" glyph-name="combined" d="M512 960c-136.76 0-265.336-53.256-362.040-149.96-96.702-96.704-149.96-225.279-149.96-362.040s53.258-265.338 149.96-362.042c96.704-96.704 225.279-149.958 362.040-149.958s265.338 53.254 362.042 149.958c96.698 96.704 149.958 225.28 149.958 362.042 0 136.76-53.261 265.336-149.958 362.040-96.704 96.704-225.28 149.96-362.042 149.96zM393.845 597.361c0-45.948 37.381-83.329 83.331-83.329h80.656c87.467 0 158.628-71.163 158.628-158.631 0-87.471-71.162-158.632-158.628-158.632h-2.678v-83.334c0-20.794-16.857-37.651-37.65-37.651s-37.65 16.858-37.65 37.651v83.334h-83.329c-20.793 0-37.65 16.858-37.65 37.651s16.857 37.651 37.65 37.651h161.309c45.948 0 83.33 37.382 83.33 83.33s-37.382 83.332-83.33 83.332h-80.656c-87.468 0-158.631 71.16-158.631 158.628s71.161 158.631 158.631 158.631h2.676v83.331c0 20.793 16.857 37.65 37.65 37.65s37.65-16.857 37.65-37.65v-83.331h83.331c20.791 0 37.649-16.857 37.649-37.65s-16.858-37.65-37.649-37.65h-161.309c-45.948 0-83.331-37.381-83.331-83.331z" />
<glyph unicode="&#xe91d;" glyph-name="cross" d="M582.207 432.382l425.775 425.779c16.433 15.871 16.891 42.057 1.021 58.491s-42.060 16.889-58.493 1.018c-0.342-0.332-0.684-0.671-1.015-1.018l-425.781-425.779-425.777 425.781c-16.433 15.871-42.62 15.415-58.491-1.018-15.483-16.031-15.483-41.444 0-57.475l425.777-425.779-425.777-425.781c-16.15-16.152-16.15-42.336 0-58.488 16.152-16.152 42.339-16.152 58.491 0l425.777 425.775 425.776-425.775c16.433-15.87 42.623-15.418 58.493 1.015 15.479 16.030 15.479 41.447 0 57.472l-425.775 425.781z" />
<glyph unicode="&#xe91e;" glyph-name="date" d="M904.004 880h-48v80h-80.004v-80h-528v80h-80v-80h-48c-66.168 0-120-53.832-120-120v-704.004c0-66.167 53.832-119.996 120-119.996h784.004c66.167 0 119.996 53.828 119.996 119.996v704.004c0 66.168-53.828 120-119.996 120zM80 664v96c0 22.056 17.944 40 40 40h48v-80h80v80h528v-80h80.004v80h48c22.050 0 39.996-17.944 39.996-40v-96h-864zM944 55.996c0-22.050-17.946-39.996-39.996-39.996h-784.004c-22.056 0-40 17.946-40 39.996v528.004h864v-528.004z" />
<glyph unicode="&#xe91f;" glyph-name="explorer" d="M198.531 740.571h-125.388v-125.388h125.388v125.388zM263.124 740.571h687.733v-125.388h-687.733v125.388zM73.143 485.996h125.388v-125.387h-125.388v125.387zM791.274 485.996h-528.15v-125.387h528.15v125.387zM950.857 239.020h-687.733v-125.389h687.733v125.389zM198.531 235.22h-125.388v-125.389h125.388v125.389z" />
<glyph unicode="&#xe920;" glyph-name="eye" d="M512 750.545c-195.646 0-373.068-106.109-503.988-278.458-10.683-14.12-10.683-33.847 0-47.967 130.919-172.556 308.342-278.666 503.988-278.666s373.066 106.11 503.99 278.458c10.682 14.12 10.682 33.847 0 47.967-130.923 172.557-308.345 278.666-503.99 278.666zM526.033 234.952c-129.871-8.099-237.12 98.010-228.951 226.96 6.703 106.317 93.634 192.491 200.884 199.136 129.871 8.098 237.121-98.010 228.952-226.961-6.912-106.109-93.845-192.284-200.886-199.135zM396.372 455.475c-4.608-69.355 53.206-126.458 123.169-122.098 57.605 3.53 104.527 49.836 108.297 107.355 4.608 69.355-53.206 126.458-123.169 122.098-57.815-3.738-104.736-50.044-108.297-107.355z" />
<glyph unicode="&#xe921;" glyph-name="fb" d="M746.452 441.529h-138.625v-507.857h-210.028v507.857h-99.89v178.48h99.89v115.498c0 82.593 39.233 211.925 211.897 211.925l155.574-0.651v-173.246h-112.879c-18.515 0-44.551-9.251-44.551-48.65v-105.042h156.96l-18.349-178.314z" />
<glyph unicode="&#xe922;" glyph-name="Filter" d="M912.422 832.489v-412.699c54.98-16.039 95.301-66.797 95.301-126.906 0-60.099-40.318-110.858-95.301-126.899v-122.573c0-20.408-16.556-36.966-36.964-36.966s-36.964 16.553-36.964 36.966v122.573c-54.977 16.041-95.295 66.801-95.295 126.899 0 60.109 40.318 110.864 95.295 126.906v412.699c0 20.408 16.556 36.964 36.964 36.964s36.964-16.552 36.964-36.964zM817.123 292.89c0-32.164 26.17-58.337 58.332-58.337 32.167 0 58.337 26.173 58.337 58.337 0 32.174-26.17 58.337-58.337 58.337-32.161 0-58.332-26.168-58.332-58.337zM379.7 770.369c0 72.931 59.337 132.262 132.262 132.262 72.928 0 132.269-59.331 132.269-132.262 0-60.108-40.325-110.857-95.302-126.908v-600.042c0-20.408-16.552-36.966-36.967-36.966-20.408 0-36.964 16.553-36.964 36.966v600.042c-54.977 16.051-95.299 66.801-95.299 126.908zM453.628 770.366c0-32.164 26.17-58.337 58.335-58.337 32.167 0 58.337 26.173 58.337 58.337 0 32.161-26.17 58.335-58.337 58.335-32.164 0-58.335-26.173-58.335-58.335zM185.426 832.489v-267.638c54.98-16.039 95.301-66.798 95.301-126.905 0-60.099-40.321-110.855-95.301-126.901v-267.633c0-20.408-16.546-36.966-36.964-36.966-20.411 0-36.964 16.553-36.964 36.966v267.633c-54.977 16.046-95.299 66.802-95.299 126.901 0 60.107 40.321 110.863 95.299 126.905v267.638c0 20.408 16.549 36.964 36.964 36.964s36.964-16.552 36.964-36.964zM90.128 437.949c0-32.161 26.17-58.338 58.335-58.338 32.167 0 58.337 26.177 58.337 58.338 0 32.17-26.17 58.337-58.337 58.337-32.164 0-58.335-26.167-58.335-58.337z" />
<glyph unicode="&#xe924;" glyph-name="finger2" d="M220.998 301.87c39.634 22.205 68.506-0.916 110.379-21.941 35.954-18.125 76.677-19.601 80.844 1.671 6.842 34.386 6.135 50.983 7.52 97.952 1.069 37.362 2.038 105.016 3.838 169.407 2.376 86.158 7.536 124.847 41.337 123.94 36.391-1.107 40.089-54.582 36.054-125.759-4.578-81.015-4.939-117.325 1.419-117.467 11.157-0.389 7.573 36.073 36.833 35.268 36.537-1.123 34.503-29.348 44.707-29.762 10.267-0.222 15.691 27.267 44.842 26.406 29.27-0.961 31.99-38.302 44.092-38.601 11.973-0.318 15.593 11.665 33.623 11.029 18.122-0.453 71.245-48.523 67.283-181.798-5.063-167.544-64.621-179.641-66.201-236.41l-224.021-11.118c-3.512 44.102-52.564 63.216-88.734 102.356-36.394 39.581-50.763 98.325-167.642 133.676-43.955 13.305-30.562 47.486-6.176 61.151z" />
<glyph unicode="&#xe925;" glyph-name="googleplus" d="M612.219 383.325c-24.155-158.678-142.458-249.647-295.622-249.647-172.121 0-311.666 139.542-311.666 311.665 0 172.078 139.545 311.622 311.666 311.622 83.26 0 156.216-29.712 209.316-81.289l-89.445-89.444c-30.29 30.518-71.743 46.785-119.871 46.785-101.318 0-183.459-86.397-183.459-187.671 0-101.366 82.141-185.252 183.459-185.252 84.917 0 149.224 41.047 167.776 123.231h-167.776v125.159h294.863c3.541-20.166 5.331-41.271 5.331-63.138-0.003-21.691-1.57-42.351-4.572-62.021zM986.501 422.13h-109.206v-109.16h-77.569v109.16h-109.206v77.616h109.206v109.206h77.569v-109.206h109.206v-77.616z" />
<glyph unicode="&#xe926;" glyph-name="info" d="M503.978 960c-278.314 0-503.978-225.664-503.978-503.978 0-278.317 225.664-504.022 503.978-504.022 278.317 0 504.022 225.705 504.022 504.022 0 278.314-225.705 503.978-504.022 503.978zM548.777 622.038c-21.161 0-39.422 6.997-54.611 20.992-15.104 13.994-22.742 31.018-22.742 50.901 0 19.84 7.68 36.907 22.742 51.030 15.189 14.166 33.45 21.206 54.611 21.206 21.207 0 39.383-7.040 54.4-21.206 15.063-14.122 22.615-31.19 22.615-51.030 0-19.925-7.552-36.906-22.615-50.901-15.060-13.995-216.119 91.662-54.4-20.992zM608.896 178.903c-25.943-10.24-46.592-18.007-62.080-23.383-15.447-5.376-33.408-8.064-53.846-8.064-31.402 0-55.85 7.68-73.258 22.999-17.408 15.314-26.070 34.729-26.070 58.322 0 9.175 0.64 18.56 1.92 28.119 1.323 9.559 3.414 20.311 6.272 32.384l32.47 114.688c2.858 11.008 5.334 21.463 7.296 31.191 1.962 9.81 2.902 18.814 2.902 27.006 0 14.592-3.030 24.832-9.046 30.592-6.102 5.76-17.578 8.576-34.688 8.576-8.362 0-16.982-1.238-25.814-3.84-8.746-2.688-16.341-5.12-22.57-7.51l8.576 35.328c21.248 8.662 41.6 16.086 61.014 22.23 19.413 6.229 37.76 9.301 55.040 9.301 31.189 0 55.251-7.594 72.194-22.613 16.85-15.062 25.344-34.646 25.344-58.71 0-4.992-0.599-13.782-1.751-26.326-1.152-12.586-3.328-24.066-6.487-34.602l-32.297-114.345c-2.647-9.175-4.992-19.671-7.127-31.406-2.089-11.73-3.113-20.69-3.113-26.706 0-15.191 3.369-25.559 10.199-31.063 6.738-5.504 18.56-8.279 35.282-8.279 7.895 0 16.727 1.408 26.711 4.142 9.897 2.729 17.065 5.161 21.591 7.25l-8.663-35.282z" />
<glyph unicode="&#xe927;" glyph-name="left-arrow" d="M715.509-14.88c-15.325 0-30.649 5.59-42.77 16.832l-439.637 408.175c-12.749 11.933-20.035 28.576-20.035 46.036s7.285 34.103 20.035 46.036l439.637 408.235c25.436 23.615 65.129 22.17 88.744-3.266s22.17-65.192-3.203-88.807l-390.084-362.198 390.084-362.264c25.373-23.546 26.818-63.239 3.203-88.744-12.31-13.308-29.079-20.035-45.974-20.035z" />
<glyph unicode="&#xe928;" glyph-name="location-arrow" d="M919.856 898.131l-824.49-380.439c-92.231-42.569-61.873-181.571 39.88-181.571h349.070v-348.923c0-102.553 139.102-131.897 181.571-39.879l380.261 824.528c37.479 81.209-47.093 162.837-126.292 126.284z" />
<glyph unicode="&#xe929;" glyph-name="mask" d="M824.811 259.949h-61.44c-67.861 0-122.884 55.023-122.884 122.889v39.474c27.186 32.311 46.685 70.53 58.804 110.915 1.26 6.808 7.811 10.171 12.181 14.851 23.521 23.52 28.151 63.212 10.505 91.473-2.404 4.289-6.729 8.009-6.488 13.323 0 36.031 0.183 72.118-0.045 108.121-0.965 43.468-13.387 88.685-43.861 120.873-24.607 26.006-58.388 41.491-93.241 48.118-44.045 8.402-90.122 7.976-133.744-3.12-37.803-9.541-73.319-31.681-95.279-64.501-19.445-28.533-27.965-63.178-29.403-97.322-0.539-36.659-0.124-73.409-0.235-110.157 0.836-7.356-5.404-12.334-8.222-18.424-16.619-30.149-9.303-71.225 17.402-93.153 6.775-4.676 8.043-13.2 10.497-20.548 11.645-36.301 30.961-69.872 55.381-99.122v-40.801c0-67.866-55.020-122.889-122.879-122.889h-61.445c0 0-111.357-30.711-184.322-184.316v-61.444c0-33.955 27.481-61.431 61.443-61.431h860.166c33.951 0 61.431 27.476 61.431 61.431v61.444c-72.959 153.596-184.32 184.316-184.32 184.316z" />
<glyph unicode="&#xe92a;" glyph-name="more" d="M216.99 557.714c-59.149 0-107.276-48.127-107.276-107.276s48.127-107.276 107.276-107.276c59.15 0 107.276 48.127 107.276 107.276s-48.127 107.276-107.276 107.276zM807.026 557.714c-59.149 0-107.276-48.127-107.276-107.276s48.127-107.276 107.276-107.276c59.15 0 107.276 48.127 107.276 107.276s-48.127 107.276-107.276 107.276zM511.99 557.714c-59.149 0-107.276-48.127-107.276-107.276s48.127-107.276 107.276-107.276c59.15 0 107.276 48.127 107.276 107.276s-48.127 107.276-107.276 107.276z" />
<glyph unicode="&#xe92b;" glyph-name="news" d="M176.75 673.526h670.477v-67.048h-670.477v67.048zM578.999 271.241h234.667v-67.048h-234.667v67.048zM578.999 405.333h301.714v-67.048h-301.714v67.048zM578.999 539.432h301.714v-67.048h-301.714v67.048zM176.75 539.432h301.714v-335.238h-301.714v335.238z" />
<glyph unicode="&#xe92c;" glyph-name="pen" d="M1003.118 839.591l-92.899 93.351c-35.899 36.077-94.193 36.077-130.216 0l-88.987-89.421 208.305-209.325 103.797 104.305c27.845 27.983 27.845 73.108 0 101.090zM636.749 789.108l208.307-209.323-527.28-529.857-208.187 209.321 527.159 529.859zM29.255-63.312c-17.063-4.169-32.466 11.198-28.676 28.343l52.61 237.539 208.187-209.32-232.121-56.561z" />
<glyph unicode="&#xe92d;" glyph-name="phone" d="M984.506 52.553l-68.516-68.528c-12.231-12.212-48.050-19.835-49.199-19.835-216.752-1.889-425.45 83.249-578.789 236.603-153.759 153.844-238.996 363.285-236.707 580.764 0 0.099 7.844 34.89 20.066 46.996l68.511 68.522c25.071 25.187 73.23 36.569 106.967 25.282l14.412-4.807c33.638-11.276 68.956-48.47 78.25-82.736l34.463-126.49c9.294-34.365-3.241-83.255-28.305-108.325l-45.747-45.754c44.915-166.276 175.38-296.769 341.685-341.792l45.729 45.77c25.189 25.183 74.057 37.708 108.348 28.432l126.474-34.586c34.273-9.421 71.458-44.512 82.732-78.142l4.807-14.619c11.178-33.641-0.12-81.794-25.183-106.754z" />
<glyph unicode="&#xe92e;" glyph-name="responsible" d="M607.753 960c-106.463 0-203.7-40.52-277.389-107.042 16.345-26.205 25.63-56.691 26.503-88.162l0.008-0.184c0.371-14.18 1.211-28.364 2.415-42.526 55.894 77.435 146.42 127.904 248.464 127.904 169.38 0 307.18-138.934 307.18-309.709 0-168.974-134.926-306.684-301.851-309.574 15.243-12.842 30.981-25.079 47.194-36.575l0.073-0.051 0.077-0.051c22.077-15.704 40.058-36.291 52.675-59.834 178.7 47.16 310.94 211.335 310.94 406.086 0.005 231.434-186.74 419.719-416.287 419.719zM600.525 96.854c-48.393 39.010-78.587 64.991-121.8 105.411-12.712 11.892-28.248 19.298-44.204 19.298-12.21 0-24.268-3.924-34.194-12.153-10.245-8.709-20.489-17.417-30.738-26.121-83.271 99.933-145.105 216.381-181.453 341.72 12.85 3.798 25.704 7.599 38.554 11.396 28.321 8.757 41.645 39.288 37.488 69.894-9.041 66.616-13.953 99.711-19.549 160.777-2.868 31.301-23.498 58.491-53.066 60.117-4.612 0.452-9.219 0.676-13.79 0.676-109.959 0-205.699-128.703-170.283-286.154 44.069-194.991 139.472-374.652 275.92-519.622 55.894-59.262 124.367-86.095 186.211-86.095 65.238 0 123.099 29.84 151.124 82.953 15.025 25.768 4.115 58.289-20.219 77.903zM473.844 532.917c-30.397-28.685-50.285-51.24-60.789-68.941-7.415-12.485-12.824-25.684-16.086-39.232-1.533-6.377-0.123-12.996 3.869-18.166 3.988-5.162 9.973-8.124 16.428-8.124h145.059c17.772 0 32.233 14.708 32.233 32.784s-14.461 32.785-32.233 32.785h-65.507c0.534 0.64 1.084 1.281 1.644 1.926 4.28 4.9 14.76 15.138 31.145 30.42 17.185 16.040 28.787 28.052 35.468 36.723 10.070 13.036 17.561 25.762 22.259 37.821 4.791 12.289 7.223 25.391 7.223 38.946 0 24.321-8.66 44.964-25.736 61.368-16.965 16.271-40.32 24.516-69.425 24.516-26.447 0-48.91-7.041-66.759-20.929-10.769-8.386-19.059-20.003-24.645-34.539-3.773-9.82-2.797-21.054 2.612-30.045 5.409-8.995 14.799-14.993 25.114-16.040 1.149-0.117 2.294-0.176 3.423-0.176 14.518 0 27.465 9.39 32.221 23.363 1.49 4.38 3.462 7.862 5.867 10.355 5.063 5.248 11.883 7.803 20.853 7.803 9.116 0 15.928-2.415 20.815-7.382 4.876-4.958 7.246-12.191 7.246-22.117 0-9.218-3.239-18.83-9.624-28.58-3.423-5.103-13.654-17.041-42.675-44.542zM719.127 695.744h22.477c10.68 0 19.373-9.53 19.373-21.241v-156.71h3.083c15.812 0 28.678-14.107 28.678-31.444s-12.865-31.444-28.678-31.444h-3.083v-22.613c0-18.658-13.845-33.839-30.862-33.839s-30.862 15.181-30.862 33.839v22.613h-85.335c-10.681 0-19.373 9.531-19.373 21.241v27.036c0 5.896 1.604 11.589 4.637 16.458l103.949 166.843c3.614 5.799 9.594 9.261 15.998 9.261zM660.952 517.793h38.304v62.434l-38.304-62.434z" />
<glyph unicode="&#xe92f;" glyph-name="retailer" d="M182.857 568.984c0 175.276 143.178 317.873 319.169 317.873s319.167-142.598 319.167-317.873c0-217.521-285.623-536.859-297.784-550.347-11.402-12.646-31.344-12.668-42.767 0-12.161 13.488-297.785 332.826-297.785 550.347zM341.446 568.984c0-88.187 72.035-159.932 160.58-159.932 88.544 0 160.579 71.746 160.579 159.931 0 88.187-72.035 159.931-160.579 159.931s-160.58-71.743-160.58-159.929z" />
<glyph unicode="&#xe930;" glyph-name="search" d="M724.859 320.732l280.361-280.479c15.898-15.13 22.349-37.693 16.85-58.941-5.499-21.253-22.083-37.852-43.331-43.372-21.243-5.514-43.807 0.916-58.952 16.804l-280.105 280.259-0.292-0.215c-68.588-50.78-151.757-78.019-237.094-77.645-221.873 1.28-401.331 181.002-402.289 402.888-0.626 106.173 41.235 208.186 116.257 283.314s176.974 117.131 283.143 116.651c221.854-1.281 401.294-180.99 402.252-402.854 0.379-84.995-26.547-167.863-76.8-236.41zM80.172 559.739c0.779-177.495 144.343-321.265 321.832-322.284 84.924-0.353 166.465 33.26 226.471 93.358s93.501 141.694 93.020 226.621c-0.778 177.498-144.343 321.262-321.832 322.284-84.924 0.353-166.466-33.262-226.472-93.36s-93.498-141.692-93.019-226.619z" />
<glyph unicode="&#xe931;" glyph-name="settings" d="M384 913.455c11.556 0 21.556-4.187 30-12.562s12.667-18.292 12.667-29.752v-169.256c0-11.46-4.222-21.377-12.667-29.752s-18.444-12.562-30-12.562h-170.667c-11.555 0-21.555 4.188-30 12.562s-12.666 18.292-12.666 29.752v169.256c0 11.46 4.222 21.377 12.666 29.752s18.445 12.562 30 12.562h170.667zM149.333 828.827v-84.628h-149.333v84.628h149.333zM1024 744.199v84.628h-576v-84.628h576zM840.667 562.38c-8.443 8.374-18.446 12.562-29.999 12.562h-170.668c-11.557 0-21.555-4.187-29.999-12.562-8.448-8.375-12.67-18.292-12.67-29.752v-169.257c0-11.459 4.222-21.378 12.67-29.752 8.443-8.374 18.441-12.563 29.999-12.563h170.668c11.553 0 21.555 4.189 29.999 12.563s12.665 18.292 12.665 29.752v169.257c0 11.46-4.222 21.377-12.665 29.752zM576 405.686v84.628h-576v-84.628h576zM1024 490.314v-84.628h-149.332v84.628h149.332zM469.332 236.428c11.557 0 21.555-4.184 30.003-12.558 8.443-8.378 12.665-18.292 12.665-29.752v-169.258c0-11.459-4.222-21.378-12.665-29.752-8.448-8.374-18.446-12.563-30.003-12.563h-170.665c-11.556 0-21.556 4.189-30 12.563s-12.667 18.292-12.667 29.752v169.258c0 11.459 4.222 21.374 12.667 29.752 8.444 8.374 18.444 12.558 30 12.558h170.665zM234.667 151.803v-84.629h-234.667v84.629h234.667zM1024 67.174v84.629h-490.668v-84.629h490.668z" />
<glyph unicode="&#xe932;" glyph-name="shape" d="M967.323 803.77c9.21-36.101 11.334-93.258-30.863-160.553-32.158-51.289-84.4-98.583-155.391-140.88-8.709-134.607-109.507-244.515-239.888-267.213v-109.985h155.912c27.756 0 50.256-22.494 50.256-50.25v-55.010c0-27.75-22.5-50.256-50.256-50.256h-412.33c-27.754 0-50.254 22.506-50.254 50.256v55.010c0 27.756 22.5 50.25 50.254 50.25h155.911v110.074c-130.045 22.888-230.541 132.542-239.375 266.818-71.249 42.377-123.671 89.776-155.903 141.185-42.197 67.297-40.073 124.458-30.863 160.558 18.067 70.812 78.806 120.265 147.747 120.265h657.336c68.903 0 129.64-49.448 147.708-120.27zM781.706 823.534v-199.773c77.415 59.643 98.007 116.852 88.236 155.162-7.474 29.291-30.977 44.611-50.345 44.611h-37.89zM111.915 778.925c-9.786-38.369 10.876-95.692 88.584-155.43l-0.28 200.037h-37.959c-19.371 0-42.866-15.316-50.344-44.607z" />
<glyph unicode="&#xe933;" glyph-name="social" d="M889.941 705.024v-221.303c0-81.912-66.398-148.31-148.314-148.31h-377.161l-170.783-168.017c-6.085-5.986-14.161-9.156-22.375-9.156-4.153 0-8.336 0.806-12.32 2.479-11.852 4.966-19.567 16.563-19.567 29.414v145.57c-77.767 4.595-139.423 69.094-139.423 148.020v221.303c0 81.909 66.4 148.309 148.309 148.309h593.323c81.907 0 148.309-66.4 148.309-148.309zM943.714 479.839v11.796c45.338-6.18 80.29-45.034 80.286-92.066v-138.697c0-49.463-38.643-89.89-87.381-92.77v-91.234c0-8.051-4.834-15.322-12.262-18.436-2.496-1.041-5.12-1.553-7.723-1.553-5.146 0-10.21 1.993-14.025 5.743l-107.034 105.301h-236.378c-51.332 0-92.945 41.609-92.945 92.949v24.282h282.773c107.354 0 194.688 87.334 194.688 194.685z" />
<glyph unicode="&#xe934;" glyph-name="star" d="M281.708 18.935c-12.935-0.024-25.555 3.995-36.096 11.491-20.332 14.487-29.5 40.097-22.981 64.191l69.906 255.26-209.597 166.162c-19.667 15.43-27.578 41.518-19.793 65.274 7.996 23.831 29.816 40.297 54.926 41.45l269.457 13.716 96.256 246.656c9.366 23.243 31.912 38.465 56.972 38.465s47.605-15.223 56.972-38.465l96.618-246.656 269.396-13.716c25.105-1.17 46.913-17.63 54.926-41.45 7.779-23.743-0.102-49.817-19.732-65.274l-209.236-165.921 69.966-255.26c6.521-24.112-2.671-49.734-23.041-64.191-20.533-14.595-47.857-15.311-69.124-1.805l-226.323 144.384-226.322-144.384c-9.87-6.413-21.376-9.86-33.148-9.926v0z" />
<glyph unicode="&#xe935;" glyph-name="tell_us" d="M898.446 708.215l-126.955 126.262-236.4-237.077 126.979-126.277 236.376 237.093zM425.179 399.898c-10.176-24.423 14.358-48.915 38.776-38.712l150.45 77.795-111.466 111.417-77.76-150.5zM1015.348 826.355c11.511 11.512 11.511 30.167 0 41.679l-83.341 83.333c-11.511 11.511-30.167 11.511-41.678 0l-71.147-71.147 125.012-125.020 71.155 71.155zM89.491 117.435h29.83v-151.524c0-12.088 7.256-23.017 18.411-27.625 10.992-4.603 23.896-2.15 32.51 6.479l172.23 172.67h347.597c49.347 0 89.493 40.248 89.493 89.721v296.936l-94.096-94.337c-8.211-8.24-17.799-14.72-28.551-19.245l-170.794-88.785c-15.528-6.721-27.179-9.088-39.065-9.088-8.879 0-17.44 1.713-25.713 4.237h-212.532c-16.492 0-29.83 13.38-29.83 29.906 0 16.534 13.338 29.906 29.83 29.906h151.054c-5.888 19.579-3.363 40.786 4.755 60.249l92.054 179.236c2.618 6.628 9.088 16.269 17.276 24.47l94.678 94.922h-479.137c-49.344 0-89.491-40.249-89.491-89.719v-418.688c0-49.473 40.146-89.721 89.491-89.721v0z" />
<glyph unicode="&#xe936;" glyph-name="terms" d="M689.652 487.84c0 21.65-17.279 39.2-38.597 39.2h-397.548c-21.317 0-38.597-17.55-38.597-39.2s17.28-39.2 38.597-39.2h397.548c21.318 0 38.597 17.55 38.597 39.2zM253.506 370.237c-21.317 0-38.597-17.55-38.597-39.2s17.28-39.2 38.597-39.2h241.445c21.317 0 38.597 17.55 38.597 39.2s-17.28 39.2-38.597 39.2h-241.445zM344.11-6.083h-129.086c-42.565 0-77.194 35.173-77.194 78.402v689.92c0 43.23 34.629 78.4 77.194 78.4h474.527c42.567 0 77.193-35.17 77.193-78.4v-241.080c0-21.65 17.279-39.2 38.599-39.2 21.316 0 38.594 17.55 38.594 39.2v241.080c0 86.46-69.257 156.8-154.387 156.8h-474.527c-85.13 0-154.388-70.34-154.388-156.8v-689.92c0-86.458 69.258-156.8 154.388-156.8h129.086c21.317 0 38.597 17.548 38.597 39.201 0 21.649-17.28 39.197-38.597 39.197zM912.291 351.482c-45.147 45.852-118.605 45.854-163.722 0.031l-211.903-214.738c-4.5-4.561-7.82-10.178-9.668-16.356l-46.149-154.301c-4.091-13.681-0.527-28.536 9.304-38.769 7.364-7.663 17.369-11.828 27.63-11.828 3.433 0 6.899 0.47 10.302 1.428l155.786 43.826c6.411 1.803 12.255 5.258 16.964 10.033l211.459 214.359c45.148 45.852 45.148 120.458-0.002 166.314zM850.258 233.049l-54.586 55.439 7.453 7.554c15.049 15.284 39.535 15.284 54.584 0s15.049-40.153 0.027-55.413l-7.478-7.579zM653.484 33.578l-78.375-22.050 22.936 76.693 142.981 144.893 54.595-55.448-142.137-144.088zM651.055 683.841h-397.548c-21.317 0-38.597-17.55-38.597-39.2s17.28-39.2 38.597-39.2h397.548c21.318 0 38.597 17.55 38.597 39.2s-17.279 39.2-38.597 39.2z" />
<glyph unicode="&#xe937;" glyph-name="ticket" d="M118.624 493.679l54.079 26.841 12.345 311.617-47.029 1.869c-24.887 0.991-45.839-18.347-46.802-43.235l-9.966-251.111c-0.481-11.948 3.822-23.585 11.92-32.362 6.767-7.305 15.771-11.948 25.454-13.618zM367.232 622.335l-49.803 52.493c-1.954 2.067-2.576 5.096-1.585 7.786s3.397 4.587 6.257 4.87l71.916 7.588c2.463 0.255 4.643 1.727 5.804 3.879l34.627 63.564c1.388 2.52 4.077 4.048 6.909 3.935 2.86-0.113 5.38-1.84 6.569-4.445l29.418-66.112c1.019-2.265 3.030-3.879 5.493-4.332l25.227-4.7 136.669 67.782 2.348 59.203-407.032 16.082-11.155-281.605 140.151 69.538c-0.198 1.642-0.679 3.228-1.812 4.473zM748.090 794.367c13.562 0 26.558-2.803 38.421-7.73-7.418 13.251-21.179 22.537-37.459 23.189l-47 1.869-1.161-29.163 2.775 1.359c13.704 6.824 29.106 10.476 44.424 10.476zM98.175 422.103c-10.702-5.323-18.857-14.723-22.679-25.963-3.822-11.297-2.945-23.698 2.322-34.401l131.544-265.042c7.815-15.856 23.812-25.028 40.375-25.028 6.739 0 13.562 1.529 19.989 4.729l56.174 27.802-171.551 345.735-56.174-27.832zM919.975 449.227l-131.544 265.070c-7.786 15.855-23.84 25.029-40.403 25.029-6.682 0-13.562-1.501-19.989-4.728l-56.146-27.86 171.579-345.735 56.146 27.833c10.702 5.323 18.885 14.694 22.679 25.963 3.822 11.325 3.001 23.727-2.322 34.429zM376.369 128.691l-172.762 345.707 421.899 207.933 172.763-345.763-421.9-207.877zM631.409 320.203c2.794-0.028 5.5 1.558 6.843 4.106 1.28 2.52 1.083 5.635-0.658 8.069l-52.37 71.265 29.422 83.241c0.94 2.69 0.227 5.719-1.766 7.758-2.026 2.038-4.988 2.775-7.728 1.897l-80.736-26.218c-2.366-0.793-4.961-0.34-6.928 1.161l-67.508 51.162c-2.281 1.727-5.36 2.010-7.925 0.736-2.594-1.274-4.219-3.907-4.219-6.767l0.2-84.317c0-2.492-1.226-4.814-3.279-6.201l-69.789-47.906c-2.366-1.642-3.621-4.417-3.193-7.305 0.428-2.831 2.452-5.181 5.188-6.059l80.794-25.906c2.366-0.765 4.219-2.633 4.903-4.983l24.318-80.806c0.827-2.801 3.165-4.813 6.015-5.296 2.851-0.508 5.702 0.651 7.412 2.944l49.776 68.293c1.483 1.982 3.82 3.143 6.301 3.086l84.928-1.954z" />
<glyph unicode="&#xe938;" glyph-name="time" d="M0 448c0 281.6 230.4 512 512 512s512-230.4 512-512c0-281.6-230.4-512-512-512s-512 230.4-512 512zM102.4 448c0-225.28 184.32-409.6 409.6-409.6s409.6 184.32 409.6 409.6c0 225.28-184.32 409.6-409.6 409.6s-409.6-184.32-409.6-409.6zM522.24 714.24h-71.68v-293.843l248.491-156.717 38.229 63.666-215.040 132.23v254.664z" />
<glyph unicode="&#xe939;" glyph-name="triangle" d="M524.643 52.053l-468.31 669.013h936.619l-468.308-669.013z" />
</font>
</defs>
</svg>
