<?xml version="1.0" encoding="utf-8"?>
<svg width="22px" height="24px" viewBox="0 0 22 24" version="1.1" xmlns:xlink="http://www.w3.org/1999/xlink" xmlns="http://www.w3.org/2000/svg">
  <desc>Created with Lunacy</desc>
  <path d="M23.0667 11.7014C23.0667 11.9983 22.9669 12.2441 22.7411 12.4854L21.5529 13.689C21.3322 13.9128 21.0997 14.0113 20.801 14.0113C20.4968 14.0113 20.2791 13.918 20.0833 13.7086L15.3332 8.91066L13.6226 7.18308L13.6226 21.0927C13.6226 21.3741 13.5417 21.5586 13.359 21.7191C13.1425 21.9091 12.8926 22 12.563 22L10.5035 22C10.1739 22 9.92388 21.9091 9.70727 21.7189C9.52498 21.5587 9.44425 21.3743 9.44425 21.0927L9.44425 7.18305L3.00348 13.6877C2.78755 13.9179 2.56975 14.0112 2.26597 14.0112C1.96221 14.0112 1.74435 13.9179 1.5482 13.7082L0.323075 12.4663C0.0989411 12.239 0 12.0016 0 11.7014C0 11.3886 0.0999007 11.1461 0.32306 10.92L10.7971 0.30567C10.9987 0.090255 11.2153 0 11.5334 0C11.847 0 12.0777 0.0950772 12.2854 0.305619L22.7491 10.9094C22.9684 11.1471 23.0667 11.3957 23.0667 11.7014Z" transform="matrix(-4.371139E-08 -1 1 -4.371139E-08 0 23.06665)" id="Path-Copy-3" fill="#FFFFFF" stroke="none" />
</svg>