<svg xmlns="http://www.w3.org/2000/svg" viewBox="0 0 343 510"><defs><style>.cls-1{fill:#fff;}</style></defs><title>combined_shape2</title><g id="Слой_2" data-name="Слой 2"><g id="Слой_1-2" data-name="Слой 1"><path class="cls-1" d="M17,0H326l.87,0c.29,0,.57,0,.86.06l.85.1c.28,0,.57.08.84.14l.83.17.82.22.8.25.79.29.76.33c.26.12.51.24.75.37s.49.26.72.4.48.28.71.44l.67.46c.22.17.44.33.65.51s.42.35.63.53.4.37.59.57.38.39.57.59.36.41.53.63.34.43.51.65.31.44.46.67.3.47.44.71.27.47.4.72.25.49.37.75l.33.76c.1.26.2.52.29.79s.17.53.25.8.15.54.22.81.12.56.17.84.1.56.14.84.07.56.1.85.05.57.06.86,0,.58,0,.87V493c0,.29,0,.58,0,.87s0,.57-.06.86-.06.57-.1.85-.08.57-.14.84-.11.56-.17.83-.14.55-.22.82-.16.54-.25.8-.19.53-.29.79l-.33.76c-.12.26-.24.51-.37.75s-.26.49-.4.72-.28.48-.43.71l-.47.67c-.17.22-.33.44-.51.65s-.35.42-.53.63-.37.4-.57.59-.39.38-.59.57-.41.36-.63.53-.43.34-.65.5-.44.32-.67.47-.47.3-.7.44l-.73.4c-.24.13-.49.25-.75.37l-.76.32c-.26.11-.52.21-.79.3l-.8.25-.81.22-.84.17c-.27.06-.56.1-.84.14l-.85.1c-.29,0-.57.05-.86.06l-.87,0H194.35c-3.61-9.94-12.7-17-23.35-17s-19.74,7.06-23.35,17H17l-.87,0c-.29,0-.57,0-.86-.06l-.85-.1c-.28,0-.57-.08-.84-.14l-.83-.17-.82-.22-.8-.25-.79-.29-.76-.33c-.26-.12-.51-.24-.75-.37s-.49-.26-.72-.4-.48-.28-.71-.43l-.67-.47c-.22-.17-.44-.33-.65-.51s-.42-.35-.63-.53-.4-.37-.59-.57-.38-.39-.57-.59-.36-.41-.53-.63-.34-.43-.5-.65-.32-.44-.47-.67-.3-.47-.44-.7-.27-.48-.4-.73-.25-.49-.37-.74-.22-.51-.32-.77-.21-.52-.3-.79-.17-.53-.25-.8-.15-.54-.22-.81-.12-.56-.17-.84-.1-.56-.14-.84-.07-.56-.1-.85,0-.57-.06-.86,0-.58,0-.87V17c0-.29,0-.58,0-.87s0-.57.06-.86.06-.57.1-.85.08-.57.14-.84.11-.56.17-.83.14-.55.22-.82.16-.54.25-.8.19-.53.3-.79.21-.51.32-.76.24-.51.37-.75.26-.49.4-.72.28-.48.43-.71l.47-.67c.17-.22.33-.44.51-.65s.35-.42.53-.63.37-.4.57-.59.39-.38.59-.57.41-.36.63-.53.43-.34.65-.51l.67-.46c.23-.16.47-.3.71-.44s.47-.27.72-.4.49-.25.75-.37l.76-.32c.26-.11.52-.21.79-.3l.8-.25.81-.22.84-.17c.27-.06.56-.1.84-.14l.85-.1c.29,0,.57,0,.86-.06Z"/></g></g></svg>