<svg xmlns="http://www.w3.org/2000/svg" viewBox="0 0 20 22"><defs><style>.cls-1{fill:#fff;}</style></defs><title>equalizer</title><g id="Слой_2" data-name="Слой 2"><g id="Слой_1-2" data-name="Слой 1"><path class="cls-1" d="M0,13.75a.87.87,0,0,1,.27-.64.84.84,0,0,1,.64-.28H4.55a.84.84,0,0,1,.63.28.87.87,0,0,1,.27.64v3.67a.89.89,0,0,1-.27.64.86.86,0,0,1-.63.27H.91a.87.87,0,0,1-.64-.27A.89.89,0,0,1,0,17.42Zm1.82,5H3.64V22H1.82ZM3.64,0H1.82V12.38H3.64Zm3.9,3.94a.89.89,0,0,0-.27.64V8.25a.87.87,0,0,0,.27.64.86.86,0,0,0,.64.28h3.64a.86.86,0,0,0,.64-.28.87.87,0,0,0,.27-.64V4.58a.92.92,0,0,0-.91-.91H8.18A.89.89,0,0,0,7.54,3.94Zm3.37,5.69H9.09V22h1.82ZM9.09,0h1.82V3.21H9.09Zm5.46,11.92a.89.89,0,0,1,.27-.65.86.86,0,0,1,.63-.27h3.64a.87.87,0,0,1,.64.27.89.89,0,0,1,.27.65v3.66a.89.89,0,0,1-.27.65.87.87,0,0,1-.64.27H15.45a.86.86,0,0,1-.63-.27.89.89,0,0,1-.27-.65Zm1.81,5h1.82v5H16.36ZM18.18,0H16.36V10.54h1.82Z"/></g></g></svg>