<svg xmlns="http://www.w3.org/2000/svg" viewBox="0 0 21.24 22.18"><defs><style>.cls-1{fill:#fff;}</style></defs><title>equalizer-close</title><g id="Слой_2" data-name="Слой 2"><g id="Слой_1-2" data-name="Слой 1"><path class="cls-1" d="M0,13.75a.87.87,0,0,1,.27-.64.84.84,0,0,1,.64-.28H4.55a.84.84,0,0,1,.63.28.87.87,0,0,1,.27.64v3.67a.89.89,0,0,1-.27.64.86.86,0,0,1-.63.27H.91a.87.87,0,0,1-.64-.27A.89.89,0,0,1,0,17.42Z"/><rect class="cls-1" x="1.82" y="18.79" width="1.82" height="3.21"/><rect class="cls-1" x="1.82" width="1.82" height="12.38"/><path class="cls-1" d="M7.54,3.94a.89.89,0,0,0-.27.64V8.25a.87.87,0,0,0,.27.64.86.86,0,0,0,.64.28h3.64a.86.86,0,0,0,.64-.28.87.87,0,0,0,.27-.64V4.58a.92.92,0,0,0-.91-.91H8.18A.89.89,0,0,0,7.54,3.94Z"/><rect class="cls-1" x="9.09" y="9.63" width="1.82" height="12.38"/><rect class="cls-1" x="9.09" width="1.82" height="3.21"/><rect class="cls-1" x="16.36" width="1.82" height="12.01"/><path class="cls-1" d="M18,18.24l3.08-3.08a.5.5,0,0,0,0-.71.5.5,0,0,0-.7,0l-3.08,3.08-3.09-3.08a.5.5,0,0,0-.7,0,.5.5,0,0,0,0,.71l3.08,3.08-3.08,3.08a.5.5,0,0,0,0,.71.48.48,0,0,0,.7,0L17.31,19,20.39,22a.49.49,0,0,0,.35.15.47.47,0,0,0,.35-.15.5.5,0,0,0,0-.71Z"/></g></g></svg>