<svg xmlns="http://www.w3.org/2000/svg" viewBox="0 0 28.83 28.83"><defs><style>.cls-1{fill:#fff;}.cls-2{fill:#ff000e;}</style></defs><title>equlizer-close-red-new_1</title><g id="Слой_2" data-name="Слой 2"><g id="Слой_1-2" data-name="Слой 1"><g id="Слой_2-2" data-name="Слой 2"><g id="Слой_1-2-2" data-name="Слой 1-2"><path class="cls-1" d="M4.42,17.17a.82.82,0,0,1,.27-.64.78.78,0,0,1,.64-.28H9a.84.84,0,0,1,.63.28.89.89,0,0,1,.27.64v3.67a.92.92,0,0,1-.9.91H5.33a.92.92,0,0,1-.91-.91Zm1.82,5H8.06v3.25H6.24ZM8.06,3.42H6.24V15.8H8.06ZM12,7.36a.85.85,0,0,0-.27.64v3.67a.83.83,0,0,0,.27.64.85.85,0,0,0,.64.28h3.64a.88.88,0,0,0,.64-.28.91.91,0,0,0,.27-.64V8a.92.92,0,0,0-.91-.91H12.6A.85.85,0,0,0,12,7.36Zm3.37,5.69H13.51V25.42h1.82ZM13.51,3.42h1.82V6.63H13.51ZM19,15.34a.92.92,0,0,1,.9-.92h3.64a.83.83,0,0,1,.64.27.91.91,0,0,1,.27.65V19a.93.93,0,0,1-.27.65.91.91,0,0,1-.64.27H19.87a.87.87,0,0,1-.63-.27A.85.85,0,0,1,19,19Zm1.81,5H22.6v5H20.78ZM22.6,3.42H20.78V14H22.6Z"/></g></g><path class="cls-2" d="M14.42,28.83A14.42,14.42,0,1,1,28.83,14.42,14.43,14.43,0,0,1,14.42,28.83ZM14.42,3A11.42,11.42,0,1,0,25.83,14.42,11.43,11.43,0,0,0,14.42,3Z"/><rect class="cls-2" x="1.5" y="12.92" width="25.83" height="3" transform="translate(-5.28 19.69) rotate(-60)"/></g></g></svg>