<?xml version="1.0" encoding="utf-8"?>
<svg width="34px" height="42px" viewBox="0 0 34 42" version="1.1" xmlns:xlink="http://www.w3.org/1999/xlink" xmlns="http://www.w3.org/2000/svg">
  <desc>Created with Lunacy</desc>
  <path d="M4.17428 24C1.50637 15.2088 7.1436 11.999 7.1436 11.999C6.74919 16.69 9.415 20.3446 9.415 20.3446C10.3954 20.0488 12.2668 18.6663 12.2668 18.6663C12.2668 20.3446 11.2794 23.9979 11.2794 23.9979C11.2794 23.9979 14.7361 21.3251 15.8243 16.8858C16.911 12.4465 13.7543 7.98974 13.7543 7.98974C13.9445 11.1318 12.8815 14.2221 10.799 16.583C10.9032 16.4627 10.9906 16.3291 11.0577 16.1844C11.4318 15.4361 12.0326 13.4913 11.6808 8.98767C11.1857 2.66581 5.45754 0 5.45754 0C5.95126 3.85186 4.4708 4.7393 1.00286 12.0507C-2.46507 19.3607 4.17428 24 4.17428 24Z" transform="translate(8.800781 4.799988)" id="Path-Copy-2" fill="#FA6400" stroke="none" />
</svg>