<?xml version="1.0" encoding="utf-8"?>
<!-- Generator: Adobe Illustrator 22.1.0, SVG Export Plug-In . SVG Version: 6.00 Build 0)  -->
<svg version="1.1" id="Слой_1" xmlns="http://www.w3.org/2000/svg" xmlns:xlink="http://www.w3.org/1999/xlink" x="0px" y="0px"
	 viewBox="0 0 32 32" style="enable-background:new 0 0 32 32;" xml:space="preserve">
<style type="text/css">
	.st0{fill:#FFBF35;}
</style>
<path id="Shape" class="st0" d="M30.9,3.9C30.5,1.6,28.6,0,26.4,0H5.7C3.5,0,1.6,1.7,1.1,3.9c-0.5,1.9,0,3.8,0.9,5.4
	c1.3,1.9,3,3.6,4.9,4.7c0.3,4.4,3.3,8.2,7.6,9v3.8H9.6c-0.9,0-1.6,0.8-1.6,1.7l0,0v1.7c0,0.9,0.6,1.7,1.6,1.7l0,0h12.9
	c0.9,0,1.6-0.8,1.6-1.7l0,0v-1.9c0-0.9-0.6-1.7-1.6-1.7l0,0h-5V23c4.1-0.8,7.3-4.6,7.6-9c1.9-1.1,3.6-2.8,4.9-4.7
	C30.9,7.7,31.2,5.8,30.9,3.9z M4,4.7c0.2-0.8,0.8-1.4,1.6-1.6h1.3v6.8C4.3,7.9,3.7,6,4,4.7z M25.1,9.9V3.2h1.1
	c0.8,0,1.4,0.6,1.6,1.6C28.1,6,27.6,7.9,25.1,9.9L25.1,9.9z"/>
<desc>Created with Lunacy</desc>
</svg>
