<?xml version="1.0" encoding="utf-8"?>
<svg width="25px" height="24px" viewBox="0 0 25 24" version="1.1" xmlns:xlink="http://www.w3.org/1999/xlink" xmlns="http://www.w3.org/2000/svg">
  <desc>Created with Lunacy</desc>
  <path d="M24.1616 13.0726L22.3746 10.2369C22.233 10.0121 22.1853 9.74063 22.2414 9.48108L22.9508 6.20524C23.0614 5.69473 22.7661 5.18373 22.2688 5.02416L19.0772 4.00062C18.8242 3.91944 18.6131 3.74234 18.4893 3.50739L16.9271 0.542076C16.6838 0.079798 16.1291 -0.121937 15.6455 0.0754669L12.5424 1.3431C12.2966 1.44331 12.021 1.44331 11.7752 1.3431L8.67261 0.0757053C8.18899 -0.121699 7.63437 0.0800365 7.39079 0.542315L5.82861 3.50735C5.70479 3.7423 5.49368 3.9194 5.24073 4.00058L2.04912 5.02412C1.55156 5.18369 1.25649 5.69473 1.36711 6.2052L2.07626 9.48104C2.13261 9.74059 2.08465 10.0121 1.94307 10.2369L0.156302 13.0726C-0.122281 13.5146 -0.0195255 14.0956 0.393282 14.4158L3.04218 16.4692C3.25226 16.6321 3.39002 16.8706 3.42606 17.134L3.88 20.4548C3.95053 20.9724 4.40291 21.3517 4.92459 21.3314L8.27379 21.2017C8.53918 21.1913 8.79797 21.2857 8.99514 21.4641L11.4771 23.7161C11.864 24.067 12.4544 24.067 12.8411 23.7161L15.3233 21.4641C15.52 21.2855 15.779 21.1913 16.0447 21.2017L19.3936 21.3314C19.9157 21.3517 20.3676 20.9721 20.4384 20.4548L20.8923 17.134C20.9284 16.8706 21.0661 16.6321 21.276 16.4692L23.9249 14.4158C24.3377 14.0956 24.4402 13.5146 24.1616 13.0726ZM9.34703 16.0394L6.38935 13.9736L7.60496 16.791L6.79481 17.1406L4.93043 12.8206L5.7789 12.4542L8.79241 14.5761L7.54711 11.6913L8.35727 11.3414L10.2222 15.6616L9.34703 16.0394ZM11.1444 15.2635L9.28004 10.9435L12.4833 9.56071L12.7985 10.2917L10.4672 11.2977L10.8806 12.2553L13.0497 11.319L13.3638 12.047L11.1947 12.983L11.7021 14.1587L14.1156 13.1172L14.4297 13.8451L11.1444 15.2635ZM18.4469 12.112L16.1926 9.25324L16.7287 12.8531L15.7828 13.2614L12.8872 9.38671L13.7798 9.00104L15.712 11.6875L15.221 8.37943L16.2587 7.93161L18.3182 10.6224L17.6788 7.31862L18.557 6.93955L19.3722 11.7126L18.4469 12.112Z" id="Shape" fill="#02AD58" stroke="none" />
</svg>