<?xml version="1.0" encoding="utf-8"?>
<!-- Generator: Adobe Illustrator 22.1.0, SVG Export Plug-In . SVG Version: 6.00 Build 0)  -->
<svg version="1.1" id="Слой_1" xmlns="http://www.w3.org/2000/svg" xmlns:xlink="http://www.w3.org/1999/xlink" x="0px" y="0px"
	 viewBox="0 0 32 32" style="enable-background:new 0 0 32 32;" xml:space="preserve">
<style type="text/css">
	.st0{fill:#FFBF35;}
	.st1{clip-path:url(#SVGID_2_);}
	.st2{fill:none;stroke:#E02020;stroke-width:4;}
	.st3{fill:none;stroke:#E02020;stroke-width:2;}
</style>
<path id="Shape" class="st0" d="M25.5,9.3c-0.3-1.5-1.5-2.5-2.9-2.5H9.5c-1.4,0-2.6,1.1-2.9,2.5c-0.3,1.2,0,2.4,0.6,3.4
	c0.8,1.2,1.9,2.3,3.1,3c0.2,2.8,2.1,5.2,4.8,5.7v2.4h-3.1c-0.6,0-1,0.5-1,1.1c0,0,0,0,0,0V26c0,0.6,0.4,1.1,1,1.1l0,0h8.2
	c0.6,0,1-0.5,1-1.1l0,0v-1.2c0-0.6-0.4-1.1-1-1.1c0,0,0,0,0,0H17v-2.3c2.6-0.5,4.6-2.9,4.8-5.7c1.2-0.7,2.3-1.8,3.1-3
	C25.5,11.7,25.7,10.5,25.5,9.3z M8.4,9.8c0.1-0.5,0.5-0.9,1-1h0.8v4.3C8.6,11.8,8.2,10.6,8.4,9.8z M21.8,13.1V8.8h0.7
	c0.5,0,0.9,0.4,1,1C23.7,10.6,23.4,11.8,21.8,13.1L21.8,13.1z"/>
<desc>Created with Lunacy</desc>
<g id="Group-16">
	<g id="Oval-Copy-2">
		<g>
			<defs>
				<ellipse id="SVGID_1_" cx="16" cy="15.9" rx="16" ry="15.9"/>
			</defs>
			<clipPath id="SVGID_2_">
				<use xlink:href="#SVGID_1_"  style="overflow:visible;"/>
			</clipPath>
			<g class="st1">
				<g>
					<path id="path_1" class="st2" d="M16,31.8c8.8,0,16-7.1,16-15.9C32,7.1,24.8,0,16,0C7.2,0,0,7.1,0,15.9
						C0,24.7,7.2,31.8,16,31.8z"/>
				</g>
			</g>
		</g>
	</g>
	<path id="Path-6" class="st3" d="M6,26L26.5,6"/>
</g>
</svg>
