<svg xmlns="http://www.w3.org/2000/svg" viewBox="0 0 27.57 27.57"><defs><style>.cls-1{fill:#ffbf35;}.cls-2{fill:red;}</style></defs><title>no_jackpots_1</title><g id="Слой_2" data-name="Слой 2"><g id="Слой_1-2" data-name="Слой 1"><path id="Shape" class="cls-1" d="M21.77,8.58a2.6,2.6,0,0,0-2.48-2h-11a2.6,2.6,0,0,0-2.47,2,3.38,3.38,0,0,0,.51,2.69,7.64,7.64,0,0,0,2.62,2.36,4.88,4.88,0,0,0,4,4.48V20H10.33a.84.84,0,0,0-.84.85v.92a.84.84,0,0,0,.84.84h6.91a.84.84,0,0,0,.84-.84V20.8a.84.84,0,0,0-.84-.85H14.63V18.11a4.88,4.88,0,0,0,4-4.48,7.56,7.56,0,0,0,2.6-2.36A3.4,3.4,0,0,0,21.77,8.58ZM7.43,9a.94.94,0,0,1,.84-.75h.64V11.6C7.61,10.6,7.27,9.64,7.43,9Zm11.23,2.6V8.24h.63a.94.94,0,0,1,.85.75C20.3,9.63,20,10.59,18.66,11.59Z"/><path class="cls-2" d="M13.78,0A13.79,13.79,0,1,0,27.57,13.78,13.79,13.79,0,0,0,13.78,0ZM2.5,13.78A11.19,11.19,0,0,1,4.86,6.91L20.69,22.69A11.26,11.26,0,0,1,2.5,13.78Zm20,7.17L6.59,5.1A11.27,11.27,0,0,1,22.49,21Z"/></g></g></svg>