<?xml version="1.0" encoding="utf-8"?>
<!-- Generator: Adobe Illustrator 22.1.0, SVG Export Plug-In . SVG Version: 6.00 Build 0)  -->
<svg version="1.1" id="Слой_1" xmlns="http://www.w3.org/2000/svg" xmlns:xlink="http://www.w3.org/1999/xlink" x="0px" y="0px"
	 viewBox="0 0 32 32" style="enable-background:new 0 0 32 32;" xml:space="preserve">
<style type="text/css">
	.st0{fill:#EC610A;}
	.st1{fill:#FFC300;}
</style>
<g>
	<path class="st0" d="M-2.2,20.2"/>
	<path id="Oval" class="st1" d="M16,31.8c8.8,0,15.9-7.1,15.9-15.8S24.8,0.2,16,0.2C7.2,0.2,0.1,7.3,0.1,16S7.2,31.8,16,31.8z"/>
	<path id="Shape-Copy-2" class="st0" d="M18,14.9h-2.2c-1.3,0-2.3-1.1-2.3-2.3s1.1-2.3,2.3-2.3h4.5c0.5,0,1.1-0.4,1.1-1.1
		c0-0.6-0.4-1.1-1.1-1.1h-2.3V5.9c0-0.5-0.4-1.1-1.1-1.1c-0.5,0-1.1,0.4-1.1,1.1v2.3h-0.1c-2.4,0-4.4,2-4.4,4.4s2,4.4,4.4,4.4H18
		c1.3,0,2.3,1.1,2.3,2.3c0,1.3-1.1,2.3-2.3,2.3h-4.5c-0.5,0-1.1,0.4-1.1,1.1c0,0.5,0.4,1.1,1.1,1.1h2.3v2.3c0,0.5,0.4,1.1,1.1,1.1
		c0.5,0,1.1-0.4,1.1-1.1v-2.3h0c2.4,0,4.4-2,4.4-4.4C22.4,16.9,20.5,14.9,18,14.9z"/>
	<path class="st0" d="M35.3,18.6"/>
</g>
</svg>
