<?xml version="1.0" encoding="utf-8"?>
<!-- Generator: Adobe Illustrator 22.1.0, SVG Export Plug-In . SVG Version: 6.00 Build 0)  -->
<svg version="1.1" id="Слой_1" xmlns="http://www.w3.org/2000/svg" xmlns:xlink="http://www.w3.org/1999/xlink" x="0px" y="0px"
	 viewBox="0 0 82 90" style="enable-background:new 0 0 82 90;" xml:space="preserve">
<style type="text/css">
	.st0{fill:none;}
	.st1{clip-path:url(#SVGID_2_);}
	.st2{fill:#136081;}
	.st3{clip-path:url(#SVGID_4_);}
	.st4{clip-path:url(#SVGID_6_);}
	.st5{clip-path:url(#SVGID_8_);}
	.st6{fill:url(#SVGID_9_);}
	.st7{clip-path:url(#SVGID_11_);}
	.st8{clip-path:url(#SVGID_13_);}
	.st9{enable-background:new    ;}
	.st10{clip-path:url(#SVGID_15_);}
	.st11{fill:url(#SVGID_16_);}
	.st12{fill:url(#SVGID_17_);}
	.st13{fill:url(#SVGID_18_);}
	.st14{fill:url(#SVGID_19_);}
	.st15{fill:url(#SVGID_20_);}
	.st16{fill:url(#SVGID_21_);}
	.st17{clip-path:url(#SVGID_23_);}
	.st18{clip-path:url(#SVGID_25_);}
	.st19{fill:url(#SVGID_26_);}
	.st20{fill:url(#SVGID_27_);}
	.st21{fill:url(#SVGID_28_);}
	.st22{fill:url(#SVGID_29_);}
</style>
<pattern  y="90" width="82" height="90" patternUnits="userSpaceOnUse" id="pattern_0" viewBox="0 -90 82 90" style="overflow:visible;">
	<g>
		<rect y="-90" class="st0" width="82" height="90"/>
		
			<image style="overflow:visible;enable-background:new    ;" width="39" height="28" id="img_2_1_" xlink:href="49ABE3B5.png"  transform="matrix(1 0 0 -1 0 0)">
		</image>
	</g>
</pattern>
<pattern  y="90" width="82" height="90" patternUnits="userSpaceOnUse" id="pattern_1" viewBox="0 -90 82 90" style="overflow:visible;">
	<g>
		<rect y="-90" class="st0" width="82" height="90"/>
		
			<image style="overflow:visible;enable-background:new    ;" width="39" height="28" id="img_3_1_" xlink:href="49ABE3B7.png"  transform="matrix(1 0 0 -1 0 0)">
		</image>
	</g>
</pattern>
<g>
	<defs>
		<rect id="SVGID_1_" x="-225" y="-261" width="375" height="667"/>
	</defs>
	<clipPath id="SVGID_2_">
		<use xlink:href="#SVGID_1_"  style="overflow:visible;"/>
	</clipPath>
	<g class="st1">
		<path class="st2" d="M77,0l5,14h-5V0z"/>
	</g>
</g>
<g>
	<defs>
		<rect id="SVGID_3_" x="-225" y="-261" width="375" height="667"/>
	</defs>
	<clipPath id="SVGID_4_">
		<use xlink:href="#SVGID_3_"  style="overflow:visible;"/>
	</clipPath>
	<g class="st3">
		<path class="st2" d="M5,0L0,14h5V0z"/>
	</g>
</g>
<g>
	<defs>
		<rect id="SVGID_5_" x="-225" y="-261" width="375" height="667"/>
	</defs>
	<clipPath id="SVGID_6_">
		<use xlink:href="#SVGID_5_"  style="overflow:visible;"/>
	</clipPath>
	<g class="st4">
		<g transform="translate(-5 -5)">
			
				<image style="overflow:visible;enable-background:new    ;" width="92" height="110" id="img_0" xlink:href="49ABE3B2.png"  transform="matrix(1 0 0 1 -6.5 -8.7119)">
			</image>
		</g>
	</g>
</g>
<g>
	<defs>
		<rect id="SVGID_7_" x="-225" y="-261" width="375" height="667"/>
	</defs>
	<clipPath id="SVGID_8_">
		<use xlink:href="#SVGID_7_"  style="overflow:visible;"/>
	</clipPath>
	<g class="st5">
		
			<linearGradient id="SVGID_9_" gradientUnits="userSpaceOnUse" x1="36" y1="3.4238" x2="36" y2="92" gradientTransform="matrix(1 0 0 -1 5 92)">
			<stop  offset="0" style="stop-color:#00A2CB"/>
			<stop  offset="1" style="stop-color:#9EFCFF"/>
		</linearGradient>
		<path class="st6" d="M5,0h72v85c0,0.1,0,0.2,0,0.3c0,0.1,0,0.2,0,0.2c0,0.1,0,0.2,0,0.2c0,0.1,0,0.2,0,0.2c0,0.1,0,0.2,0,0.2
			s0,0.1-0.1,0.2c0,0.1,0,0.1-0.1,0.2c0,0.1-0.1,0.1-0.1,0.2S76.6,87,76.6,87c0,0.1-0.1,0.1-0.1,0.2c0,0.1-0.1,0.1-0.1,0.2
			c0,0.1-0.1,0.1-0.1,0.2c0,0.1-0.1,0.1-0.1,0.2c0,0-0.1,0.1-0.1,0.1c0,0-0.1,0.1-0.1,0.1c-0.1,0-0.1,0.1-0.2,0.1
			c-0.1,0-0.1,0.1-0.2,0.1c-0.1,0-0.1,0.1-0.2,0.1c-0.1,0-0.1,0.1-0.2,0.1c-0.1,0-0.1,0-0.2,0.1c-0.1,0-0.1,0-0.2,0.1
			c-0.1,0-0.1,0-0.2,0c-0.1,0-0.1,0-0.2,0c-0.1,0-0.1,0-0.2,0c-0.1,0-0.1,0-0.2,0c-0.1,0-0.1,0-0.2,0c-0.1,0-0.1,0-0.2,0
			c-0.1,0-0.2,0-0.2,0c-0.1,0-0.2,0-0.2,0c-0.1,0-0.2,0-0.2-0.1c-0.1,0-0.2,0-0.2-0.1c-0.1,0-0.2-0.1-0.2-0.1l-26.6-9.9
			c-0.2-0.1-0.3-0.1-0.5-0.2c-0.2-0.1-0.3-0.1-0.5-0.1c-0.2,0-0.4-0.1-0.6-0.1c-0.2,0-0.4-0.1-0.6-0.1c-0.2,0-0.4-0.1-0.6-0.1
			c-0.2,0-0.4,0-0.6-0.1c-0.2,0-0.4,0-0.6,0c-0.2,0-0.4,0-0.6,0s-0.4,0-0.6,0c-0.2,0-0.4,0-0.6,0c-0.2,0-0.4,0-0.6,0.1
			c-0.2,0-0.4,0.1-0.6,0.1c-0.2,0-0.4,0.1-0.6,0.1c-0.2,0-0.4,0.1-0.6,0.1c-0.2,0-0.4,0.1-0.5,0.1c-0.2,0.1-0.3,0.1-0.5,0.2
			L9.7,88.3c-0.1,0-0.2,0.1-0.2,0.1c-0.1,0-0.2,0-0.2,0.1c-0.1,0-0.2,0-0.2,0.1c-0.1,0-0.2,0-0.2,0c-0.1,0-0.2,0-0.2,0
			c-0.1,0-0.2,0-0.2,0c-0.1,0-0.1,0-0.2,0c-0.1,0-0.1,0-0.2,0c-0.1,0-0.1,0-0.2,0c-0.1,0-0.1,0-0.2,0c-0.1,0-0.1,0-0.2,0
			c-0.1,0-0.1,0-0.2-0.1c-0.1,0-0.1,0-0.2-0.1c-0.1,0-0.1-0.1-0.2-0.1c-0.1,0-0.1-0.1-0.2-0.1c-0.1,0-0.1-0.1-0.2-0.1
			C6.3,88,6.2,88,6.2,88c-0.1,0-0.1-0.1-0.1-0.1c0,0-0.1-0.1-0.1-0.1c0,0-0.1-0.1-0.1-0.2c0-0.1-0.1-0.1-0.1-0.2
			c0-0.1-0.1-0.1-0.1-0.2c0-0.1-0.1-0.1-0.1-0.2c0-0.1-0.1-0.1-0.1-0.2s-0.1-0.1-0.1-0.2c0-0.1,0-0.1-0.1-0.2c0-0.1,0-0.1-0.1-0.2
			s0-0.1,0-0.2c0-0.1,0-0.2,0-0.2c0-0.1,0-0.2,0-0.2c0-0.1,0-0.2,0-0.2c0-0.1,0-0.2,0-0.3V0z"/>
	</g>
</g>
<g>
	<defs>
		<path id="SVGID_10_" d="M77,0H5v85c0,0.3,0,0.7,0.1,1s0.1,0.6,0.3,0.9c0.1,0.3,0.3,0.5,0.4,0.7s0.4,0.4,0.6,0.5
			c0.2,0.1,0.4,0.3,0.7,0.3c0.3,0.1,0.5,0.1,0.8,0.1c0.3,0,0.6,0,0.9-0.1c0.3-0.1,0.6-0.1,0.9-0.3l26.6-9.9c0.2-0.1,0.3-0.1,0.5-0.2
			c0.2-0.1,0.3-0.1,0.5-0.1c0.2,0,0.4-0.1,0.6-0.1c0.2,0,0.4-0.1,0.6-0.1c0.2,0,0.4-0.1,0.6-0.1c0.2,0,0.4,0,0.6-0.1
			c0.2,0,0.4,0,0.6,0c0.2,0,0.4,0,0.6,0s0.4,0,0.6,0c0.2,0,0.4,0,0.6,0c0.2,0,0.4,0,0.6,0.1c0.2,0,0.4,0.1,0.6,0.1
			c0.2,0,0.4,0.1,0.6,0.1c0.2,0,0.4,0.1,0.6,0.1c0.2,0,0.4,0.1,0.5,0.1c0.2,0.1,0.3,0.1,0.5,0.2l26.6,9.9c0.3,0.1,0.6,0.2,0.9,0.3
			c0.3,0.1,0.6,0.1,0.9,0.1c0.3,0,0.6-0.1,0.8-0.1c0.3-0.1,0.5-0.2,0.7-0.3c0.2-0.1,0.4-0.3,0.6-0.5c0.2-0.2,0.3-0.4,0.4-0.7
			c0.1-0.3,0.2-0.5,0.3-0.9s0.1-0.6,0.1-1V0z"/>
	</defs>
	<clipPath id="SVGID_11_">
		<use xlink:href="#SVGID_10_"  style="overflow:visible;"/>
	</clipPath>
	<g class="st7">
		<g transform="translate(-3 -3)">
			
				<image style="overflow:visible;enable-background:new    ;" width="88" height="106" id="img_1" xlink:href="49ABE3B3.png"  transform="matrix(1 0 0 1 -3 -3)">
			</image>
		</g>
	</g>
</g>
<g>
	<defs>
		<path id="SVGID_12_" d="M77,0H5v85c0,0.3,0,0.7,0.1,1s0.1,0.6,0.3,0.9c0.1,0.3,0.3,0.5,0.4,0.7s0.4,0.4,0.6,0.5
			c0.2,0.1,0.4,0.3,0.7,0.3c0.3,0.1,0.5,0.1,0.8,0.1c0.3,0,0.6,0,0.9-0.1c0.3-0.1,0.6-0.1,0.9-0.3l26.6-9.9c0.2-0.1,0.3-0.1,0.5-0.2
			c0.2-0.1,0.3-0.1,0.5-0.1c0.2,0,0.4-0.1,0.6-0.1c0.2,0,0.4-0.1,0.6-0.1c0.2,0,0.4-0.1,0.6-0.1c0.2,0,0.4,0,0.6-0.1
			c0.2,0,0.4,0,0.6,0c0.2,0,0.4,0,0.6,0s0.4,0,0.6,0c0.2,0,0.4,0,0.6,0c0.2,0,0.4,0,0.6,0.1c0.2,0,0.4,0.1,0.6,0.1
			c0.2,0,0.4,0.1,0.6,0.1c0.2,0,0.4,0.1,0.6,0.1c0.2,0,0.4,0.1,0.5,0.1c0.2,0.1,0.3,0.1,0.5,0.2l26.6,9.9c0.3,0.1,0.6,0.2,0.9,0.3
			c0.3,0.1,0.6,0.1,0.9,0.1c0.3,0,0.6-0.1,0.8-0.1c0.3-0.1,0.5-0.2,0.7-0.3c0.2-0.1,0.4-0.3,0.6-0.5c0.2-0.2,0.3-0.4,0.4-0.7
			c0.1-0.3,0.2-0.5,0.3-0.9s0.1-0.6,0.1-1V0z"/>
	</defs>
	<clipPath id="SVGID_13_">
		<use xlink:href="#SVGID_12_"  style="overflow:visible;"/>
	</clipPath>
	<g class="st8">
		<g class="st9">
			<path class="st2" d="M28,45.6h-2.6v8.1h-1.1v-8.1h-2.6v-1H28V45.6z"/>
			<path class="st2" d="M30.4,53.7h-1.1v-9.1h1.1V53.7z"/>
			<path class="st2" d="M39,53.3c-0.7,0.4-1.5,0.5-2.5,0.5c-1.3,0-2.3-0.4-3.1-1.3c-0.8-0.8-1.2-1.9-1.2-3.3c0-1.5,0.4-2.6,1.3-3.5
				s2-1.3,3.3-1.3c0.9,0,1.6,0.1,2.1,0.4V46c-0.7-0.4-1.4-0.5-2.2-0.5c-1,0-1.9,0.3-2.5,1c-0.6,0.7-1,1.6-1,2.8c0,1.1,0.3,2,0.9,2.7
				c0.6,0.7,1.4,1,2.4,1c0.9,0,1.7-0.2,2.4-0.6V53.3z"/>
			<path class="st2" d="M47.2,53.7h-1.5l-3.5-4.2c-0.1-0.2-0.2-0.3-0.2-0.3h0v4.5h-1.1v-9.1H42v4.3h0c0.1-0.1,0.1-0.2,0.2-0.3l3.4-4
				H47L43,49L47.2,53.7z"/>
			<path class="st2" d="M53.3,53.7h-4.8v-9.1h4.6v1h-3.6v3h3.3v1h-3.3v3.2h3.8V53.7z"/>
			<path class="st2" d="M60.4,45.6h-2.6v8.1h-1.1v-8.1h-2.6v-1h6.3V45.6z"/>
		</g>
	</g>
</g>
<g>
	<defs>
		<path id="SVGID_14_" d="M77,0H5v85c0,0.3,0,0.7,0.1,1s0.1,0.6,0.3,0.9c0.1,0.3,0.3,0.5,0.4,0.7s0.4,0.4,0.6,0.5
			c0.2,0.1,0.4,0.3,0.7,0.3c0.3,0.1,0.5,0.1,0.8,0.1c0.3,0,0.6,0,0.9-0.1c0.3-0.1,0.6-0.1,0.9-0.3l26.6-9.9c0.2-0.1,0.3-0.1,0.5-0.2
			c0.2-0.1,0.3-0.1,0.5-0.1c0.2,0,0.4-0.1,0.6-0.1c0.2,0,0.4-0.1,0.6-0.1c0.2,0,0.4-0.1,0.6-0.1c0.2,0,0.4,0,0.6-0.1
			c0.2,0,0.4,0,0.6,0c0.2,0,0.4,0,0.6,0s0.4,0,0.6,0c0.2,0,0.4,0,0.6,0c0.2,0,0.4,0,0.6,0.1c0.2,0,0.4,0.1,0.6,0.1
			c0.2,0,0.4,0.1,0.6,0.1c0.2,0,0.4,0.1,0.6,0.1c0.2,0,0.4,0.1,0.5,0.1c0.2,0.1,0.3,0.1,0.5,0.2l26.6,9.9c0.3,0.1,0.6,0.2,0.9,0.3
			c0.3,0.1,0.6,0.1,0.9,0.1c0.3,0,0.6-0.1,0.8-0.1c0.3-0.1,0.5-0.2,0.7-0.3c0.2-0.1,0.4-0.3,0.6-0.5c0.2-0.2,0.3-0.4,0.4-0.7
			c0.1-0.3,0.2-0.5,0.3-0.9s0.1-0.6,0.1-1V0z"/>
	</defs>
	<clipPath id="SVGID_15_">
		<use xlink:href="#SVGID_14_"  style="overflow:visible;"/>
	</clipPath>
	<g class="st10">
		<g class="st9">
			<pattern  id="SVGID_16_" xlink:href="#pattern_0" patternTransform="matrix(1 0 0 -1 37.376 -15690)"  class="st9">
			</pattern>
			<path class="st11" d="M28,45.6h-2.6v8.1h-1.1v-8.1h-2.6v-1H28V45.6z"/>
			<pattern  id="SVGID_17_" xlink:href="#pattern_0" patternTransform="matrix(1 0 0 -1 37.376 -15690)"  class="st9">
			</pattern>
			<path class="st12" d="M30.4,53.7h-1.1v-9.1h1.1V53.7z"/>
			<pattern  id="SVGID_18_" xlink:href="#pattern_0" patternTransform="matrix(1 0 0 -1 37.376 -15690)"  class="st9">
			</pattern>
			<path class="st13" d="M39,53.3c-0.7,0.4-1.5,0.5-2.5,0.5c-1.3,0-2.3-0.4-3.1-1.3c-0.8-0.8-1.2-1.9-1.2-3.3c0-1.5,0.4-2.6,1.3-3.5
				s2-1.3,3.3-1.3c0.9,0,1.6,0.1,2.1,0.4V46c-0.7-0.4-1.4-0.5-2.2-0.5c-1,0-1.9,0.3-2.5,1c-0.6,0.7-1,1.6-1,2.8c0,1.1,0.3,2,0.9,2.7
				c0.6,0.7,1.4,1,2.4,1c0.9,0,1.7-0.2,2.4-0.6V53.3z"/>
			<pattern  id="SVGID_19_" xlink:href="#pattern_0" patternTransform="matrix(1 0 0 -1 37.376 -15690)"  class="st9">
			</pattern>
			<path class="st14" d="M47.2,53.7h-1.5l-3.5-4.2c-0.1-0.2-0.2-0.3-0.2-0.3h0v4.5h-1.1v-9.1H42v4.3h0c0.1-0.1,0.1-0.2,0.2-0.3
				l3.4-4H47L43,49L47.2,53.7z"/>
			<pattern  id="SVGID_20_" xlink:href="#pattern_0" patternTransform="matrix(1 0 0 -1 37.376 -15690)"  class="st9">
			</pattern>
			<path class="st15" d="M53.3,53.7h-4.8v-9.1h4.6v1h-3.6v3h3.3v1h-3.3v3.2h3.8V53.7z"/>
			<pattern  id="SVGID_21_" xlink:href="#pattern_0" patternTransform="matrix(1 0 0 -1 37.376 -15690)"  class="st9">
			</pattern>
			<path class="st16" d="M60.4,45.6h-2.6v8.1h-1.1v-8.1h-2.6v-1h6.3V45.6z"/>
		</g>
	</g>
</g>
<g>
	<defs>
		<path id="SVGID_22_" d="M77,0H5v85c0,0.3,0,0.7,0.1,1s0.1,0.6,0.3,0.9c0.1,0.3,0.3,0.5,0.4,0.7s0.4,0.4,0.6,0.5
			c0.2,0.1,0.4,0.3,0.7,0.3c0.3,0.1,0.5,0.1,0.8,0.1c0.3,0,0.6,0,0.9-0.1c0.3-0.1,0.6-0.1,0.9-0.3l26.6-9.9c0.2-0.1,0.3-0.1,0.5-0.2
			c0.2-0.1,0.3-0.1,0.5-0.1c0.2,0,0.4-0.1,0.6-0.1c0.2,0,0.4-0.1,0.6-0.1c0.2,0,0.4-0.1,0.6-0.1c0.2,0,0.4,0,0.6-0.1
			c0.2,0,0.4,0,0.6,0c0.2,0,0.4,0,0.6,0s0.4,0,0.6,0c0.2,0,0.4,0,0.6,0c0.2,0,0.4,0,0.6,0.1c0.2,0,0.4,0.1,0.6,0.1
			c0.2,0,0.4,0.1,0.6,0.1c0.2,0,0.4,0.1,0.6,0.1c0.2,0,0.4,0.1,0.5,0.1c0.2,0.1,0.3,0.1,0.5,0.2l26.6,9.9c0.3,0.1,0.6,0.2,0.9,0.3
			c0.3,0.1,0.6,0.1,0.9,0.1c0.3,0,0.6-0.1,0.8-0.1c0.3-0.1,0.5-0.2,0.7-0.3c0.2-0.1,0.4-0.3,0.6-0.5c0.2-0.2,0.3-0.4,0.4-0.7
			c0.1-0.3,0.2-0.5,0.3-0.9s0.1-0.6,0.1-1V0z"/>
	</defs>
	<clipPath id="SVGID_23_">
		<use xlink:href="#SVGID_22_"  style="overflow:visible;"/>
	</clipPath>
	<g class="st17">
		<g class="st9">
			<path class="st2" d="M32,68h-1.3l-1.5-2.6c-0.1-0.2-0.3-0.4-0.4-0.6c-0.1-0.2-0.3-0.3-0.4-0.4c-0.1-0.1-0.3-0.2-0.4-0.2
				c-0.2,0-0.3-0.1-0.5-0.1h-0.9V68h-1.1v-9.1h2.7c0.4,0,0.8,0,1.1,0.1c0.3,0.1,0.6,0.3,0.9,0.5c0.2,0.2,0.4,0.5,0.6,0.8
				s0.2,0.7,0.2,1.1c0,0.3,0,0.6-0.1,0.9c-0.1,0.3-0.2,0.5-0.4,0.7c-0.2,0.2-0.4,0.4-0.6,0.5c-0.2,0.1-0.5,0.3-0.8,0.3v0
				c0.2,0.1,0.3,0.1,0.4,0.2c0.1,0.1,0.2,0.2,0.3,0.3c0.1,0.1,0.2,0.3,0.3,0.4c0.1,0.2,0.2,0.3,0.3,0.5L32,68z M26.5,59.9v3.3H28
				c0.3,0,0.5,0,0.7-0.1c0.2-0.1,0.4-0.2,0.6-0.3s0.3-0.3,0.4-0.6c0.1-0.2,0.1-0.5,0.1-0.7c0-0.5-0.2-0.9-0.5-1.1
				c-0.3-0.3-0.8-0.4-1.4-0.4H26.5z"/>
			<path class="st2" d="M40.3,68h-1.2l-1-2.6h-3.9L33.4,68h-1.2l3.5-9.1h1.1L40.3,68z M37.8,64.5l-1.4-3.9c0-0.1-0.1-0.3-0.1-0.6h0
				c0,0.3-0.1,0.5-0.1,0.6l-1.4,3.9H37.8z"/>
			<path class="st2" d="M49,68h-1.3L43,60.7c-0.1-0.2-0.2-0.4-0.3-0.6h0c0,0.2,0.1,0.6,0.1,1.3V68h-1.1v-9.1H43l4.6,7.1
				c0.2,0.3,0.3,0.5,0.4,0.6h0c0-0.3-0.1-0.7-0.1-1.3v-6.4H49V68z"/>
			<path class="st2" d="M57.7,68h-1.5l-3.5-4.2c-0.1-0.2-0.2-0.3-0.2-0.3h0V68h-1.1v-9.1h1.1v4.3h0c0.1-0.1,0.1-0.2,0.2-0.3l3.4-4
				h1.3l-3.9,4.4L57.7,68z"/>
		</g>
	</g>
</g>
<g>
	<defs>
		<path id="SVGID_24_" d="M77,0H5v85c0,0.3,0,0.7,0.1,1s0.1,0.6,0.3,0.9c0.1,0.3,0.3,0.5,0.4,0.7s0.4,0.4,0.6,0.5
			c0.2,0.1,0.4,0.3,0.7,0.3c0.3,0.1,0.5,0.1,0.8,0.1c0.3,0,0.6,0,0.9-0.1c0.3-0.1,0.6-0.1,0.9-0.3l26.6-9.9c0.2-0.1,0.3-0.1,0.5-0.2
			c0.2-0.1,0.3-0.1,0.5-0.1c0.2,0,0.4-0.1,0.6-0.1c0.2,0,0.4-0.1,0.6-0.1c0.2,0,0.4-0.1,0.6-0.1c0.2,0,0.4,0,0.6-0.1
			c0.2,0,0.4,0,0.6,0c0.2,0,0.4,0,0.6,0s0.4,0,0.6,0c0.2,0,0.4,0,0.6,0c0.2,0,0.4,0,0.6,0.1c0.2,0,0.4,0.1,0.6,0.1
			c0.2,0,0.4,0.1,0.6,0.1c0.2,0,0.4,0.1,0.6,0.1c0.2,0,0.4,0.1,0.5,0.1c0.2,0.1,0.3,0.1,0.5,0.2l26.6,9.9c0.3,0.1,0.6,0.2,0.9,0.3
			c0.3,0.1,0.6,0.1,0.9,0.1c0.3,0,0.6-0.1,0.8-0.1c0.3-0.1,0.5-0.2,0.7-0.3c0.2-0.1,0.4-0.3,0.6-0.5c0.2-0.2,0.3-0.4,0.4-0.7
			c0.1-0.3,0.2-0.5,0.3-0.9s0.1-0.6,0.1-1V0z"/>
	</defs>
	<clipPath id="SVGID_25_">
		<use xlink:href="#SVGID_24_"  style="overflow:visible;"/>
	</clipPath>
	<g class="st18">
		<g class="st9">
			<pattern  id="SVGID_26_" xlink:href="#pattern_1" patternTransform="matrix(1 0 0 -1 37.376 -15690)"  class="st9">
			</pattern>
			<path class="st19" d="M32,68h-1.3l-1.5-2.6c-0.1-0.2-0.3-0.4-0.4-0.6c-0.1-0.2-0.3-0.3-0.4-0.4c-0.1-0.1-0.3-0.2-0.4-0.2
				c-0.2,0-0.3-0.1-0.5-0.1h-0.9V68h-1.1v-9.1h2.7c0.4,0,0.8,0,1.1,0.1c0.3,0.1,0.6,0.3,0.9,0.5c0.2,0.2,0.4,0.5,0.6,0.8
				s0.2,0.7,0.2,1.1c0,0.3,0,0.6-0.1,0.9c-0.1,0.3-0.2,0.5-0.4,0.7c-0.2,0.2-0.4,0.4-0.6,0.5c-0.2,0.1-0.5,0.3-0.8,0.3v0
				c0.2,0.1,0.3,0.1,0.4,0.2c0.1,0.1,0.2,0.2,0.3,0.3c0.1,0.1,0.2,0.3,0.3,0.4c0.1,0.2,0.2,0.3,0.3,0.5L32,68z M26.5,59.9v3.3H28
				c0.3,0,0.5,0,0.7-0.1c0.2-0.1,0.4-0.2,0.6-0.3s0.3-0.3,0.4-0.6c0.1-0.2,0.1-0.5,0.1-0.7c0-0.5-0.2-0.9-0.5-1.1
				c-0.3-0.3-0.8-0.4-1.4-0.4H26.5z"/>
			<pattern  id="SVGID_27_" xlink:href="#pattern_1" patternTransform="matrix(1 0 0 -1 37.376 -15690)"  class="st9">
			</pattern>
			<path class="st20" d="M40.3,68h-1.2l-1-2.6h-3.9L33.4,68h-1.2l3.5-9.1h1.1L40.3,68z M37.8,64.5l-1.4-3.9c0-0.1-0.1-0.3-0.1-0.6h0
				c0,0.3-0.1,0.5-0.1,0.6l-1.4,3.9H37.8z"/>
			<pattern  id="SVGID_28_" xlink:href="#pattern_1" patternTransform="matrix(1 0 0 -1 37.376 -15690)"  class="st9">
			</pattern>
			<path class="st21" d="M49,68h-1.3L43,60.7c-0.1-0.2-0.2-0.4-0.3-0.6h0c0,0.2,0.1,0.6,0.1,1.3V68h-1.1v-9.1H43l4.6,7.1
				c0.2,0.3,0.3,0.5,0.4,0.6h0c0-0.3-0.1-0.7-0.1-1.3v-6.4H49V68z"/>
			<pattern  id="SVGID_29_" xlink:href="#pattern_1" patternTransform="matrix(1 0 0 -1 37.376 -15690)"  class="st9">
			</pattern>
			<path class="st22" d="M57.7,68h-1.5l-3.5-4.2c-0.1-0.2-0.2-0.3-0.2-0.3h0V68h-1.1v-9.1h1.1v4.3h0c0.1-0.1,0.1-0.2,0.2-0.3l3.4-4
				h1.3l-3.9,4.4L57.7,68z"/>
		</g>
	</g>
</g>
</svg>
