<?xml version="1.0" encoding="utf-8" ?>
<svg xmlns="http://www.w3.org/2000/svg" xmlns:xlink="http://www.w3.org/1999/xlink" width="22" height="22">
	<defs>
		<clipPath id="clip_0">
			<rect x="-15" y="-548" width="375" height="667" clip-rule="evenodd"/>
		</clipPath>
		<linearGradient id="gradient_0" gradientUnits="userSpaceOnUse" x1="8.1872425" y1="-43.768917" x2="8.1872425" y2="17.741936">
			<stop offset="0" stop-color="rgb(16,35,151)"/>
			<stop offset="0.48548797" stop-color="rgb(24,122,223)"/>
			<stop offset="1" stop-color="rgb(69,202,242)"/>
		</linearGradient>
	</defs>
	<g clip-path="url(#clip_0)">
		<path fill="url(#gradient_0)" stroke="none" transform="translate(7.09766 0)" d="M5.95954 0C3.67224 0 1.58318 0.870548 0 2.29974C0.351159 2.86273 0.550649 3.51772 0.569402 4.19384L0.56948 4.19581L0.569559 4.19778C0.577529 4.50243 0.595579 4.80716 0.621443 5.11142C1.82229 3.44777 3.76718 2.36348 5.95954 2.36348C9.59857 2.36348 12.5591 5.3484 12.5591 9.01739C12.5591 12.6477 9.6603 15.6063 6.07401 15.6684C6.4015 15.9443 6.73961 16.2072 7.08795 16.4542L7.08951 16.4553L7.09116 16.4564C7.56546 16.7938 7.95178 17.2361 8.22285 17.7419C12.0621 16.7287 14.9032 13.2015 14.9032 9.01739C14.9033 4.04517 10.8912 0 5.95954 0Z"/>
	</g>
	<defs>
		<clipPath id="clip_1">
			<rect x="-15" y="-548" width="375" height="667" clip-rule="evenodd"/>
		</clipPath>
		<linearGradient id="gradient_1" gradientUnits="userSpaceOnUse" x1="7.4075046" y1="-47.270432" x2="7.4075046" y2="19.161291">
			<stop offset="0" stop-color="rgb(16,35,151)"/>
			<stop offset="0.48548797" stop-color="rgb(24,122,223)"/>
			<stop offset="1" stop-color="rgb(69,202,242)"/>
		</linearGradient>
	</defs>
	<g clip-path="url(#clip_1)">
		<path fill="url(#gradient_1)" stroke="none" transform="translate(0 2.83875)" d="M12.9019 15.7054C11.8622 14.8673 11.2135 14.3091 10.2851 13.4407C10.012 13.1852 9.6782 13.0261 9.33541 13.0261C9.07309 13.0261 8.81403 13.1104 8.60077 13.2872C8.38067 13.4743 8.16057 13.6614 7.94039 13.8484C6.15137 11.7014 4.82291 9.1996 4.04199 6.50677C4.31806 6.42518 4.59422 6.34352 4.8703 6.26194C5.47875 6.07381 5.76501 5.41786 5.67571 4.76031C5.48146 3.3291 5.37594 2.61808 5.25571 1.30611C5.19409 0.633622 4.75087 0.0494628 4.11562 0.0145337C4.01654 0.0048178 3.91755 0 3.81934 0C1.45694 0 -0.599969 2.7651 0.160915 6.14784C1.10771 10.3371 3.15738 14.197 6.08888 17.3116C7.28972 18.5848 8.76083 19.1613 10.0895 19.1613C11.4911 19.1613 12.7342 18.5202 13.3363 17.3791C13.6591 16.8255 13.4247 16.1268 12.9019 15.7054Z"/>
	</g>
	<defs>
		<clipPath id="clip_2">
			<rect x="-15" y="-548" width="375" height="667" clip-rule="evenodd"/>
		</clipPath>
		<linearGradient id="gradient_2" gradientUnits="userSpaceOnUse" x1="2.3392124" y1="-15.756809" x2="2.3392124" y2="6.3870969">
			<stop offset="0" stop-color="rgb(16,35,151)"/>
			<stop offset="0.48548797" stop-color="rgb(24,122,223)"/>
			<stop offset="1" stop-color="rgb(69,202,242)"/>
		</linearGradient>
	</defs>
	<g clip-path="url(#clip_2)">
		<path fill="url(#gradient_2)" stroke="none" transform="translate(8.51563 5.67737)" d="M1.66461 3.49825C1.01156 4.11454 0.584258 4.5991 0.358597 4.9794C0.199297 5.24763 0.0830818 5.53121 0.0130063 5.82227C-0.0199268 5.95928 0.010365 6.10149 0.096123 6.21256C0.181798 6.32346 0.310394 6.3871 0.449059 6.3871L3.56556 6.3871C3.94739 6.3871 4.25807 6.0711 4.25807 5.68275C4.25807 5.29439 3.94739 4.97839 3.56556 4.97839L2.15819 4.97839C2.16967 4.96463 2.18147 4.95086 2.19352 4.93701C2.28547 4.83173 2.51063 4.61178 2.86266 4.28345C3.23186 3.93883 3.48113 3.68076 3.62466 3.49447C3.841 3.21441 4.00195 2.94098 4.10289 2.68191C4.20582 2.41788 4.25807 2.13639 4.25807 1.84517C4.25807 1.32265 4.07202 0.879138 3.70514 0.52671C3.34065 0.177137 2.83889 0 2.21358 0C1.64538 0 1.16277 0.15128 0.779298 0.449643C0.547941 0.629802 0.369822 0.87939 0.24981 1.19169C0.168757 1.40266 0.189722 1.64402 0.305937 1.83719C0.422152 2.03045 0.623877 2.15931 0.845494 2.18181C0.870173 2.18433 0.894769 2.18559 0.919036 2.18559C1.23095 2.18559 1.50911 1.98385 1.61129 1.68364C1.64331 1.58953 1.68566 1.51473 1.73733 1.46117C1.84611 1.34843 1.99262 1.29352 2.18535 1.29352C2.38121 1.29352 2.52755 1.3454 2.63254 1.45211C2.73729 1.55864 2.78821 1.71403 2.78821 1.92727C2.78821 2.12531 2.71863 2.33183 2.58145 2.54129C2.50791 2.65093 2.28811 2.9074 1.66461 3.49825Z"/>
	</g>
	<defs>
		<clipPath id="clip_3">
			<rect x="-15" y="-548" width="375" height="667" clip-rule="evenodd"/>
		</clipPath>
		<linearGradient id="gradient_3" gradientUnits="userSpaceOnUse" x1="2.3392122" y1="-15.756809" x2="2.3392122" y2="6.3870969">
			<stop offset="0" stop-color="rgb(16,35,151)"/>
			<stop offset="0.48548797" stop-color="rgb(24,122,223)"/>
			<stop offset="1" stop-color="rgb(69,202,242)"/>
		</linearGradient>
	</defs>
	<g clip-path="url(#clip_3)">
		<path fill="url(#gradient_3)" stroke="none" transform="translate(12.7734 5.67737)" d="M2.67659 0L3.1595 0C3.38896 0 3.57571 0.204754 3.57571 0.456353L3.57571 3.82317L3.64194 3.82317C3.98166 3.82317 4.25806 4.12624 4.25806 4.49872C4.25806 4.87121 3.98166 5.17427 3.64194 5.17427L3.57571 5.17427L3.57571 5.66009C3.57571 6.06095 3.27825 6.3871 2.91265 6.3871C2.54704 6.3871 2.24959 6.06095 2.24959 5.66009L2.24959 5.17427L0.416213 5.17427C0.186744 5.17427 0 4.96951 0 4.71792L0 4.13706C0 4.01038 0.0344547 3.88807 0.0996124 3.78347L2.33289 0.198962C2.41053 0.0743799 2.53901 0 2.67659 0ZM1.42673 3.82317L2.24966 3.82317L2.24966 2.48182L1.42673 3.82317Z" fill-rule="evenodd"/>
	</g>

</svg>