<?xml version="1.0" encoding="utf-8" ?>
<svg xmlns="http://www.w3.org/2000/svg" xmlns:xlink="http://www.w3.org/1999/xlink" width="22" height="20">
	<defs>
		<clipPath id="clip_0">
			<rect x="-15" y="-388" width="375" height="667" clip-rule="evenodd"/>
		</clipPath>
		<linearGradient id="gradient_0" gradientUnits="userSpaceOnUse" x1="12.085929" y1="-49.339504" x2="12.085929" y2="20">
			<stop offset="0" stop-color="rgb(16,35,151)"/>
			<stop offset="0.48548797" stop-color="rgb(24,122,223)"/>
			<stop offset="1" stop-color="rgb(69,202,242)"/>
		</linearGradient>
	</defs>
	<g clip-path="url(#clip_0)">
		<path fill="url(#gradient_0)" stroke="none" d="M8.25 0C8.49827 0 8.71311 0.0899612 8.89453 0.269886C9.07596 0.449811 9.16667 0.662878 9.16667 0.909091L9.16667 4.54545C9.16667 4.79167 9.07596 5.00473 8.89453 5.18466C8.71311 5.36458 8.49827 5.45455 8.25 5.45455L4.58333 5.45455C4.33507 5.45455 4.12023 5.36458 3.9388 5.18466C3.75738 5.00473 3.66667 4.79167 3.66667 4.54545L3.66667 0.909091C3.66667 0.662878 3.75738 0.449811 3.9388 0.269886C4.12023 0.0899612 4.33507 0 4.58333 0L8.25 0ZM3.20833 1.81818L3.20833 3.63636L0 3.63636L0 1.81818L3.20833 1.81818ZM22 3.63636L22 1.81818L9.625 1.81818L9.625 3.63636L22 3.63636ZM18.0612 7.54261C17.8798 7.36269 17.6649 7.27273 17.4167 7.27273L13.75 7.27273C13.5017 7.27273 13.2869 7.36269 13.1055 7.54261C12.924 7.72254 12.8333 7.93561 12.8333 8.18182L12.8333 11.8182C12.8333 12.0644 12.924 12.2775 13.1055 12.4574C13.2869 12.6373 13.5017 12.7273 13.75 12.7273L17.4167 12.7273C17.6649 12.7273 17.8798 12.6373 18.0612 12.4574C18.2426 12.2775 18.3333 12.0644 18.3333 11.8182L18.3333 8.18182C18.3333 7.93561 18.2426 7.72254 18.0612 7.54261ZM12.375 10.9091L12.375 9.09091L0 9.09091L0 10.9091L12.375 10.9091ZM22 9.09091L22 10.9091L18.7917 10.9091L18.7917 9.09091L22 9.09091ZM10.0833 14.5455C10.3316 14.5455 10.5464 14.6354 10.7279 14.8153C10.9093 14.9953 11 15.2083 11 15.4545L11 19.0909C11 19.3371 10.9093 19.5502 10.7279 19.7301C10.5464 19.91 10.3316 20 10.0833 20L6.41667 20C6.1684 20 5.95356 19.91 5.77214 19.7301C5.59071 19.5502 5.5 19.3371 5.5 19.0909L5.5 15.4545C5.5 15.2083 5.59071 14.9953 5.77214 14.8153C5.95356 14.6354 6.1684 14.5455 6.41667 14.5455L10.0833 14.5455ZM5.04167 16.3636L5.04167 18.1818L0 18.1818L0 16.3636L5.04167 16.3636ZM22 18.1818L22 16.3636L11.4583 16.3636L11.4583 18.1818L22 18.1818Z" fill-rule="evenodd"/>
	</g>

</svg>