<?xml version="1.0" encoding="utf-8"?>
<svg width="245px" height="96px" viewBox="0 0 245 96" version="1.1" xmlns:xlink="http://www.w3.org/1999/xlink" xmlns="http://www.w3.org/2000/svg">
  <desc>Created with Lunacy</desc>
  <defs>
    <linearGradient x1="1" y1="0.5" x2="0" y2="0.5" id="gradient_1">
      <stop offset="0" stop-color="#FFFFFF" stop-opacity="0" />
      <stop offset="1" stop-color="#FFFFFF" />
    </linearGradient>
  </defs>
  <g id="Group-15">
    <g id="Group">
      <path d="M6.41429 6.375L9.9913 2.90147C10.6741 2.23839 10.6741 1.1604 9.9913 0.497314C9.30846 -0.165771 8.19835 -0.165771 7.51551 0.497314L0.51213 7.2984C-0.17071 7.96148 -0.17071 9.03947 0.51213 9.70256L7.51568 16.5035C7.8589 16.8333 8.30702 17 8.7553 17C9.20357 17 9.65169 16.8334 9.99147 16.5001C10.6743 15.8371 10.6743 14.7591 9.99147 14.096L5.87 10.0938L113.971 10.0938C114.944 10.0938 115.734 9.26072 115.734 8.23438C115.734 7.20803 114.944 6.375 113.971 6.375L6.41429 6.375Z" id="Combined-Shape" fill="url(#gradient_1)" fill-rule="evenodd" stroke="none" />
      <path d="M6.41429 6.375L9.9913 2.90147C10.6741 2.23839 10.6741 1.1604 9.9913 0.497314C9.30846 -0.165771 8.19835 -0.165771 7.51551 0.497314L0.51213 7.2984C-0.17071 7.96148 -0.17071 9.03947 0.51213 9.70256L7.51568 16.5035C7.8589 16.8333 8.30702 17 8.7553 17C9.20357 17 9.65169 16.8334 9.99147 16.5001C10.6743 15.8371 10.6743 14.7591 9.99147 14.096L5.87 10.0938L113.971 10.0938C114.944 10.0938 115.734 9.26072 115.734 8.23438C115.734 7.20803 114.944 6.375 113.971 6.375L6.41429 6.375Z" transform="matrix(-1 0 0 1 244.7338 0)" id="Combined-Shape" fill="url(#gradient_1)" fill-rule="evenodd" stroke="none" />
    </g>
    <path d="M1.48901 50.3403C5.1022 46.4302 9.15726 47.9616 14.5855 48.7885C19.249 49.5066 23.8411 48.1964 23.5352 45.6747C23.0525 41.5945 22.3727 39.7704 20.8262 34.4855C19.5923 30.2827 17.2504 22.7075 15.1192 15.4658C12.264 5.77734 11.438 1.2785 15.2381 0.155491C19.334 -1.03898 21.6827 4.78705 23.8105 12.8659C26.2341 22.061 27.5087 26.1208 28.2225 25.9064C29.4801 25.5457 27.7602 21.6117 31.0505 20.6419C35.1633 19.444 35.9587 22.6633 37.111 22.34C38.2633 21.9929 37.8724 18.7328 41.1525 17.7731C44.4495 16.8202 46.1049 20.8835 47.4645 20.4785C48.8105 20.0804 48.7799 18.6137 50.8125 18.0317C52.8486 17.426 60.51 20.8597 64.8948 35.8569C70.3978 54.7133 64.198 58.2184 66.0777 64.6025L41.5128 73.9541C39.5243 69.166 33.3652 68.8121 27.9166 65.7596C22.4271 62.6662 18.6984 56.6394 4.3918 56.932C-0.988891 57.0409 -0.733963 52.7463 1.48901 50.3403Z" transform="matrix(0.9510565 0.309017 -0.309017 0.9510565 114.0384 4.788098)" id="Shape" fill="#FFFFFF" stroke="none" />
  </g>
</svg>