<?xml version="1.0" encoding="utf-8" ?>
<svg xmlns="http://www.w3.org/2000/svg" xmlns:xlink="http://www.w3.org/1999/xlink" width="20" height="22">
	<defs>
		<clipPath id="clip_0">
			<rect x="-15.419922" y="-481.15997" width="367.5" height="653.66003" clip-rule="evenodd"/>
		</clipPath>
		<linearGradient id="gradient_0" gradientUnits="userSpaceOnUse" x1="5.7175736" y1="-4.2401137" x2="5.7175736" y2="1.71875">
			<stop offset="0" stop-color="rgb(16,35,151)"/>
			<stop offset="0.48548797" stop-color="rgb(24,122,223)"/>
			<stop offset="1" stop-color="rgb(69,202,242)"/>
		</linearGradient>
	</defs>
	<g clip-path="url(#clip_0)">
		<path fill="url(#gradient_0)" stroke="none" transform="matrix(0.98 0 0 0.98 3.5957 9.42188)" d="M10.4077 0.859375C10.4077 0.384742 10.0289 0 9.56154 0L0.846154 0C0.378823 0 0 0.384742 0 0.859375C0 1.33401 0.378823 1.71875 0.846154 1.71875L9.56154 1.71875C10.0289 1.71875 10.4077 1.33401 10.4077 0.859375Z"/>
	</g>
	<defs>
		<clipPath id="clip_1">
			<rect x="-15.419922" y="-481.15997" width="367.5" height="653.66003" clip-rule="evenodd"/>
		</clipPath>
		<linearGradient id="gradient_1" gradientUnits="userSpaceOnUse" x1="3.8375378" y1="-4.2401137" x2="3.8375378" y2="1.71875">
			<stop offset="0" stop-color="rgb(16,35,151)"/>
			<stop offset="0.48548797" stop-color="rgb(24,122,223)"/>
			<stop offset="1" stop-color="rgb(69,202,242)"/>
		</linearGradient>
	</defs>
	<g clip-path="url(#clip_1)">
		<path fill="url(#gradient_1)" stroke="none" transform="matrix(0.98 0 0 0.98 3.5957 12.7906)" d="M0.846154 0C0.378823 0 0 0.384742 0 0.859375C0 1.33401 0.378823 1.71875 0.846154 1.71875L6.13931 1.71875C6.60664 1.71875 6.98547 1.33401 6.98547 0.859375C6.98547 0.384742 6.60664 0 6.13931 0L0.846154 0Z"/>
	</g>
	<defs>
		<clipPath id="clip_2">
			<rect x="-15.419922" y="-481.15997" width="367.5" height="653.66003" clip-rule="evenodd"/>
		</clipPath>
		<linearGradient id="gradient_2" gradientUnits="userSpaceOnUse" x1="9.4337416" y1="-54.273453" x2="9.4337416" y2="22">
			<stop offset="0" stop-color="rgb(16,35,151)"/>
			<stop offset="0.48548797" stop-color="rgb(24,122,223)"/>
			<stop offset="1" stop-color="rgb(69,202,242)"/>
		</linearGradient>
	</defs>
	<g clip-path="url(#clip_2)">
		<path fill="url(#gradient_2)" stroke="none" transform="matrix(0.98 0 0 0.98 0.283203 1)" d="M6.21454 20.2813L3.38462 20.2813C2.45148 20.2813 1.69231 19.5102 1.69231 18.5625L1.69231 3.4375C1.69231 2.48978 2.45148 1.71875 3.38462 1.71875L13.7876 1.71875C14.7208 1.71875 15.4799 2.48978 15.4799 3.4375L15.4799 8.72266C15.4799 9.19729 15.8587 9.58203 16.3261 9.58203C16.7934 9.58203 17.1722 9.19729 17.1722 8.72266L17.1722 3.4375C17.1722 1.54206 15.6539 0 13.7876 0L3.38462 0C1.51834 0 0 1.54206 0 3.4375L0 18.5625C0 20.4579 1.51834 22 3.38462 22L6.21454 22C6.68187 22 7.06069 21.6153 7.06069 21.1406C7.06069 20.666 6.68187 20.2813 6.21454 20.2813Z"/>
	</g>
	<defs>
		<clipPath id="clip_3">
			<rect x="-15.419922" y="-481.15997" width="367.5" height="653.66003" clip-rule="evenodd"/>
		</clipPath>
		<linearGradient id="gradient_3" gradientUnits="userSpaceOnUse" x1="5.6239858" y1="-25.438124" x2="5.6239858" y2="10.311463">
			<stop offset="0" stop-color="rgb(16,35,151)"/>
			<stop offset="0.48548797" stop-color="rgb(24,122,223)"/>
			<stop offset="1" stop-color="rgb(69,202,242)"/>
		</linearGradient>
	</defs>
	<g clip-path="url(#clip_3)">
		<path fill="url(#gradient_3)" stroke="none" transform="matrix(0.98 0 0 0.98 9.27539 12.4547)" d="M9.49499 0.75401C8.50524 -0.251201 6.89484 -0.251244 5.90573 0.753323L1.26022 5.46098C1.16156 5.56097 1.08879 5.68412 1.04826 5.81955L0.0365526 9.20227C-0.0531397 9.50219 0.0250026 9.82785 0.240518 10.0522C0.401964 10.2202 0.621287 10.3115 0.846237 10.3115C0.921503 10.3115 0.997487 10.3012 1.07208 10.2802L4.48736 9.3194C4.62791 9.27987 4.75602 9.20412 4.85925 9.09944L9.49503 4.40008C10.4848 3.39487 10.4848 1.75931 9.49499 0.75401ZM8.13505 3.3504L8.29899 3.18424C8.62831 2.84968 8.62831 2.30449 8.2984 1.96942C7.96848 1.63435 7.43168 1.63435 7.10177 1.96942L6.93838 2.13503L8.13505 3.3504ZM3.82119 7.72337L2.10299 8.20677L2.60581 6.52544L5.74035 3.34898L6.93723 4.56456L3.82119 7.72337Z" fill-rule="evenodd"/>
	</g>
	<defs>
		<clipPath id="clip_4">
			<rect x="-15.419922" y="-481.15997" width="367.5" height="653.66003" clip-rule="evenodd"/>
		</clipPath>
		<linearGradient id="gradient_4" gradientUnits="userSpaceOnUse" x1="5.7175736" y1="-4.2401137" x2="5.7175736" y2="1.71875">
			<stop offset="0" stop-color="rgb(16,35,151)"/>
			<stop offset="0.48548797" stop-color="rgb(24,122,223)"/>
			<stop offset="1" stop-color="rgb(69,202,242)"/>
		</linearGradient>
	</defs>
	<g clip-path="url(#clip_4)">
		<path fill="url(#gradient_4)" stroke="none" transform="matrix(0.98 0 0 0.98 3.5957 6.0531)" d="M9.56154 0L0.846154 0C0.378823 0 0 0.384742 0 0.859375C0 1.33401 0.378823 1.71875 0.846154 1.71875L9.56154 1.71875C10.0289 1.71875 10.4077 1.33401 10.4077 0.859375C10.4077 0.384742 10.0289 0 9.56154 0Z"/>
	</g>

</svg>